<?xml version="1.0" encoding="UTF-8"?>
<svg width="640" height="360" desc="Created with imagetracer.js version 1.2.6" version="1.1" xmlns="http://www.w3.org/2000/svg">
 <g stroke="#000">
  <path d="m185.8 37.5c13.699-1.1358-12.386 14.734-6.0384 18.243 12.187-11.032-11.371 11.561-3.3696-3.6527 3.136-4.8634 6.272-9.7269 9.408-14.59z" opacity=".99216"/>
  <path d="m196.8 40.5c10.164-0.20549-4.3651 7.0551-5.1848 13.396-4.2332 13.554-8.9706 2.0538-0.23651-4.9889 1.8071-2.8025 3.6142-5.6051 5.4213-8.4076z" opacity=".99216"/>
  <path d="m188.8 43c-0.16667 0.33333-0.16667 0.33333 0 0z" opacity=".99216"/>
  <path d="m207.8 43.5c10.103-0.46993-6.2577 9.8351-6.3 16-5.2066 11.322-4.4928-5.5618 3.0461-11.018 1.0846-1.6606 2.1693-3.3211 3.2539-4.9817z" opacity=".99216"/>
  <path d="m187.8 44.5c-1.4698 4.3486-4.0581 3.6815 0 0z" opacity=".99216"/>
  <path d="m199.3 46c-0.29754 3.9319-6.4253 8.6751 0 0z" opacity=".99216"/>
  <path d="m218.8 46.5c10.747-0.41382-6.0706 8.9154-6.3 15.3-1.2477 7.7243 9.5112-8.4182-0.7 5.2-10.762-2.0791 5.3143-14.382 6.9645-20.446z" opacity=".99216"/>
  <path d="m211.3 47.5c-1.3679 5.7474-7.3465 9.8959 0 0z" opacity=".99216"/>
  <path d="m229.8 49.5c11.455-0.05169-4.0702 5.3693-4.8 12.8-4.5251 15.814-7.5185-0.25479 1.3487-7.4117 1.1504-1.7961 2.3009-3.5922 3.4513-5.3883z" opacity=".99216"/>
  <path d="m222.3 50.5c-1.3679 5.7474-7.3465 9.8959 0 0z" opacity=".99216"/>
  <path d="m240.5 52.5c11.146-1.1277-5.9066 9.9736-6.5 18.3 9.2082-10.26 3.5184 5.458-4 0l10.5-18.3z" opacity=".99216"/>
  <path d="m233.8 53c-1.5254 6.5792-6.1131 8.0389-0.57469 0.87716z" opacity=".99216"/>
  <path d="m194.3 54c-1.4246 7.4373-7.185 8.2587 0 0z" opacity=".99216"/>
  <path d="m251.5 55.5c13.224-0.3468-4.0522 5.844-4.4382 14.195-1.8868 13.373-8.0896 0.88817 0.19644-5.7505 1.1958-2.8404 4.1598-5.3148 4.2418-8.4441z" opacity=".99216"/>
  <path d="m244.5 56c1.1474 3.9219-6.6155 9.6841-0.64184 1.1553z" opacity=".99216"/>
  <path d="m205.3 57c-1.4246 7.4373-7.185 8.2587 0 0z" opacity=".99216"/>
  <path d="m263 58.5c12.356-1.3109-5.1318 10.005-6 18.3-5.9392 7.6102-0.3734-10.896 4.2902-15.186 0.56993-1.0379 1.1398-2.0757 1.7098-3.1136z" opacity=".99216"/>
  <path d="m274.5 61.5c10.707-0.46482-6.3737 11.066-5.5 18.771-6.4657 6.7127 0.13141-11.222 4.656-15.86 0.65564-0.82823 0.5391-1.95 0.84397-2.9115z" opacity=".99216"/>
  <path d="m227.5 62.5c1.4207 3.6115-7.8818 12.592 0 0z" opacity=".99216"/>
  <path d="m286.5 64.5c9.6528 1.144-6.626 12.077-5.5 18.771-5.331 7.7245-2.785-9.1066 2.2349-12.654 1.0884-2.0392 2.1767-4.0785 3.2651-6.1177z" opacity=".99216"/>
  <path d="m298.3 67.5c8.839 0.97766-7.2032 13.63-4.9172 19.977-9.2033 4.3542 0.88182-12.787 3.7932-17.826l0.68134-1.3041z" opacity=".99216"/>
  <path d="m303.3 69c3.3142-0.37643-0.67541 1.5034 0 0z" opacity=".99216"/>
  <path d="m310.3 71c8.1547 2.9747-8.7177 13.889-4.554 20.568-10.345 1.8769 0.70026-12.56 2.9173-17.524l1.6367-3.0446z" opacity=".99216"/>
  <path d="m322.3 74c9.0078 0.14942-5.0875 10.99-5.3 17.3-1.7828 11.516-6.171-5.4495 1.4507-9.9325l3.8493-7.3675z" opacity=".99216"/>
  <path d="m334.3 77c7.8192 2.0063-6.8796 12.791-5.3 19.8-2.4436 7.0414-4.8542-7.931 1.8714-12.869 1.1429-2.3103 2.2857-4.6206 3.4286-6.9309z" opacity=".99216"/>
  <path d="m167.3 78c14.489-1.305 4.9644 11.174-2.5 10.5-3.8684 1.2325-12.333-4.9005 1-8-1.466-2.5079 1.0093-0.60436 1.5-2.5zm7.7 3c-1.1381 2.7475 2.7476-1.1381 0 0zm-5 1c-0.27223 3.701 3.1228-1.7729 0 0zm-6 1c-5.8944 4.9632 2.8164 2.188 0 0zm5 1c-3.8015 2.5745 3.2999-0.75008 0 0zm-2 1c-7.8815 5.7182 3.8614-1.0507 0 0z" opacity=".99216"/>
  <path d="m346 80.5c8.8746 1.9402-8.5452 15.274-3.4 20.075-9.2374 5.2588-1.3394-12.035 1.7257-16.559 0.55808-1.172 1.1162-2.344 1.6743-3.516z" opacity=".99216"/>
  <path d="m176.8 83.5c9.044 2.6976 11.349 6.9042 16.761 5.9044-0.90803 5.1194 4.2957-3.4201 11.909 1.6708 6.3686 3.2933 7.417 0.96087 3.1108 10.042-5.0539-1.6097-8.4039-1.1027-6.0814-8.1174-7.1676 14.446-0.70207-10.749-6.7 5-2.2796-2.7324-7.8265-1.718-11.5-4-5.7539-3.0082-17.761 0.24391-7.5-10.5zm1.2 2.5c-5.4166 5.1968 2.2806 4.1646 0 0zm8 2c-7.3472 7.3784 2.597 3.37 0 0zm4 4 1 1z" opacity=".99216"/>
  <path d="m358 84c9.5466 0.13348-6.1773 12.476-4 19.3-7.4125 6.5151-0.0377-12.311 4-18z" opacity=".99216"/>
  <path d="m370.5 87c9.4599-0.40938-4.34 12.115-4.4269 19.127-0.98907 8.9787-5.5546-7.523 1.731-12.96 0.89862-2.0556 1.7972-4.1112 2.6958-6.1668z" opacity=".99216"/>
  <path d="m383.3 90.5c7.061 0.50662-3.3333 12.168-4.3 17.3-0.70642 12.944-5.8123-6.5486 2.0774-12.399 0.74087-1.6335 1.4818-3.267 2.2226-4.9005z" opacity=".99216"/>
  <path d="m148.5 92.5c8.1977 0.79121 15.332 0.98155 23.163 4.1712 6.6498 3.4832 13.868 3.5334 21.637 6.3288 6.3741 4.8151 12.508 2.839 19.948 5.974 9.0762 3.235 14.988 4.671 24.402 6.626 7.895 3.559 14.723 4.9246 22.65 6.4 8.0635 1.2018 13.316 7.253 21 6 6.503 3.0909 15.365 6.0896 22.943 7.2114 6.534 2.5066 14.042 4.0324 22.057 7.7886 8.3385-0.52351 14.776 4.2362 22.786 5.7145 9.239 2.9472 19.802 4.1609 28.512 9.1237 8.9624-0.20332 16.248 4.9057 25.402 6.1617 0.75539 7.0159-1.8723 16.532-8 21.3-4.5296 8.7726 9.6831 5.1261 14 9.5-0.92756 8.4995-4.4766 16.769-9.8408 22.931-1.5289 8.4797 20.564 2.1695 14.209 13.785-1.0727 7.7903-6.1214 13.85-9.8682 19.784 4.9419 4.7804-2.3885 15.84-4.7 22.2-4.9353 5.1665-8.8751 12.095-17.974 5.6584-52.621-17.933-105.6-34.508-158.06-52.322-39.194-12.74-78.318-25.499-117.77-38.337-0.77835-7.9685 14.661 5.1678 22.542 5.0138 12.752 7.7119 8.727-2.0862 14.736-11.129 8.5615-10.55-6.0704-11.713-13.479-14.035-15.621-2.9987-15.064-7.7725 1.7068-4.1902 8.5676 2.355 13.616 5.3766 22.111 7.9988 9.7194 7.6556 10.659-6.8997 14.556-13.548 5.6036-9.0628-11.844-8.9779-17.672-10.61-7.437 0.43751-15.216-13.855-6.0748-4.6346 7.8654 1.5142 15.623 7.8592 17.824-2.2299 2.6583-6.4021 11.992-18.018-1.1145-18.229-6.9025-3.8808-19.9-1.2478-22.01-9.2816 2.976 0.27381 13.707 8.4364 19.375 5.375 1.2337-6.741 13.718-18.146 4.3796-21.884-3.8839-1.8403-11.211-1.5249-13.38-4.6161zm23.5 7.5c-3.2248 6.3873-12.748 16.329-6.5572 22.289 7.6409 0.68972 17.716 9.6185 19.063-2.6137 5.9186-8.2244 7.6312-17.062-5.131-17.406-2.4583-0.7564-4.9166-1.5128-7.3749-2.2692zm24 7c-4.2099 5.6328-13.029 17.195-5.5853 22.404 7.5519 1.6949 16.757 9.4795 18.744-2.1089 3.0427-7.3689 10.034-17.024-2.7766-17.051l-10.383-3.2446zm24 7c-2.9656 6.3621-10.766 16.47-6.5805 22.387 7.0965 0.18989 18.017 10.12 19.213-0.83557 4.2056-6.2204 11.466-18.884-1.7206-18.521-3.6372-1.0104-7.2745-2.0207-10.912-3.031zm25 7c-3.955 6.0573-9.926 16.307-6.684 22.658 6.2916-0.23191 16.545 9.8944 19.658 1.394 0.97021-6.4413 13.017-17.985 2.026-20.052-5.3497 0.64722-10.006-2.6023-15-4zm-72 7c-4.7862 5.5177-14.031 21.747-1.2904 22.427 9.8326 7.8823 15.326-0.26617 17.818-10.293 8.0325-9.6413-6.4357-8.4112-12.259-11.228-1.3909-0.67973-2.6956-1.1508-4.2678-0.90712zm98 1c-5.2477 4.4458-10.767 15.057-8 22 6.9895 0.135 17.749 10.624 21.271 0.21504 3.0311-6.587 11.202-18.935-1.9172-18.876l-11.354-3.3394zm-74 6c-2.4607 6.2206-12.743 17.871-4.1814 21.846 8.4574 1.5847 15.633 10.051 18.181-1.8456 4.2829-7.7693 9.5272-18.391-4.2138-17.443-3.4979-0.0854-6.3024-2.9303-9.7862-2.5572zm99 1c-5.8281 9.271-14.761 26.499 3.875 26.188 10.132 7.4392 11.861-8.4494 15.084-15.272 3.9934-9.3164-13.274-6.922-18.689-10.834zm-75 7c-2.9102 6.63-13.383 21.007-1.4167 22.861 7.3048 4.3182 16.243 4.4352 17.417-5.8611 6.7804-9.0506 3.1801-15.579-7.9515-15.654-2.6658-0.67515-5.2461-1.72-8.0485-1.3462zm101 1c-3.1003 6.2225-10.616 16.458-6.5956 22.439 8.1627 1.5268 20.575 10.746 22.629-2.1942 5.9195-9.5206 5.4874-17.222-7.1998-17.967-2.9456-0.71153-5.7325-2.5548-8.8334-2.2778zm-75 6c-3.9889 4.5583-10.295 16.949-6.5726 22.357 7.265-0.37137 18.65 10.93 20.856-0.78096 2.0983-5.88 11.374-19.001-1.2838-17.576-4.3333-1.3333-8.6667-2.6667-13-4zm101 2c-3.8963 6.6039-8.1762 15.541-7 23 8.0997-1.1137 19.095 11.612 22.92-0.10988 1.9769-5.9148 10.47-18.711-0.81512-19.417-5.3225-0.23191-10.035-2.8704-15.105-3.4736zm-173 3c-3.6729 6.4247-12.308 16.115-7 23 6.8809-0.14617 17.66 10.771 18.316-0.63199 1.4004-6.0516 13.617-17.409 1.8753-18.246-4.3971-1.3741-8.7942-2.7482-13.191-4.1223zm98 3c-5.3912 6.3354-14.237 23.74 0.0464 24.114 7.4362 5.018 15.059 3.065 16.139-6.5783 5.8287-8.0116 3.704-15.59-7.0043-15.381-3.0604-0.62798-5.9955-2.4552-9.1815-2.1544zm102 2c-2.9708 6.7908-7.2559 15.08-7.342 22.316 6.4064 0.94211 16.72 9.4207 22.108 3.3299 1.5409-5.9063 11.8-17.926 3.807-21.003-6.2707-1.1128-12.308-4.0611-18.573-4.6432zm-176 3c-2.6708 6.6378-13.067 18.388-4.5726 23.357 7.5334 2.3498 17.562 7.307 19.311-4.4139 5.426-7.7982 6.0081-16.131-5.494-15.976-3.0262-1.1812-6.048-2.3332-9.2447-2.9668zm100 2c-4.8169 7.063-15.284 24.491 0 25 9.0163 6.6288 15.945 0.93955 17.583-8.8882 7.8759-9.7323-2.6519-12.898-11.021-14.708-2.1869-0.52174-4.2459-1.7644-6.5624-1.4038zm-75 6c-3.8687 5.1045-9.5849 15.26-6.9596 22.04 5.8056 0.2245 17.5 9.8346 19.717 2.698 1.8024-6.0498 12.359-18.242 2.8156-21.095-5.4287-0.74607-10.415-3.659-15.573-3.6432zm101 2c-2.829 6.6067-9.6394 16.438-6.684 22.658 6.9345 0.74924 16.801 9.9276 21.441 2.8953 1.8659-5.9367 11.6-19.121 1.3571-21.13-5.5121-0.81569-10.553-4.2348-16.114-4.4229zm-173 3c-4.8326 4.6305-11.74 15.053-8.026 21.948 2.9902 2.4517 19.517 9.3398 18.095 4.2604 0.67816-6.7014 11.108-16.017 5.9306-21.208-5.3333-1.6667-10.667-3.3333-16-5zm98 3c-3.7222 6.4505-10.825 14.845-7.342 22.316 6.54 1.3582 17.671 10.771 20.79 1.0113 1.8372-5.6432 12.088-17.788 1.5516-19.327-5-1.1366-9.8669-3.8517-15-4zm103 2c-4.8602 6.0575-8.6872 16.006-7.9596 23.04 6.9336 0.24509 17.921 11.137 22.231 2.1746 1.3689-6.3732 12.695-18.801 1.2863-20.504-5.3646-0.87757-10.37-3.1604-15.557-4.7114zm-177 3c-4.423 4.9215-10.225 14.43-8.0694 21.792 4.2104 2.47 20.245 9.8687 19.139 4.4167 0.41756-6.6094 12.206-17.107 5.1984-21.301-5.2657-2.0687-10.869-3.2215-16.268-4.9071zm100 3c-3.0381 5.2863-10.63 16.556-6.6172 22.503 7.2936 1.4289 17.08 10.911 21.617 0.49718 1.3054-6.1739 11.011-19.616-1.4713-19-4.576-0.8108-8.8174-3.9976-13.529-4zm103 3c-3.5129 6.4888-9.163 17.419-5.5726 23.357 7.5027-0.77694 17.255 10.213 22.221 2.112 0.5931-6.7204 10.413-17.941 1.4036-21.443-6.3127 0.0341-11.932-4.1677-18.052-4.026zm-178 2c-4.5867 5.2411-10.625 15.005-8.0694 22.792 5.2298 0.73941 19.599 10.162 19.139 4.4167 2.0686-7.3299 9.6733-14.551 7.9306-22.208-6.3333-1.6667-12.667-3.3333-19-5zm101 3c-3.6989 6.2586-11.716 19.469-5.1706 23.808 7.1553 1.3493 18.696 11.294 21.171-0.80841 1.607-7.0255 10.691-20.053-2.771-19.154-4.9505 0.12313-8.3588-4.5542-13.229-3.8458zm-75 5c-4.2166 6.6174-10.159 14.902-8 23 6.4776 1.3675 19.303 11.492 21.632 2.5516 0.47467-6.3606 11.853-18.741 2.1802-20.947-5.2698-1.3674-10.388-4.277-15.813-4.6042zm102 3c-2.7717 6.8105-12.886 20.486-4.161 24.774 7.8204 0.8397 18.892 10.568 20.707-2.1404 3.7436-7.6255 9.5388-19.26-3.9214-19.426-4.1974-1.047-8.2036-3.6181-12.625-3.2084zm-76 5c-5.6982 5.9616-7.4113 15.033-9 23 5.5172 2.4175 18.387 8.5057 21.535 6.6042 1.1158-7.3706 6.807-15.46 7.4653-23.604-6.4701-2.5891-13.164-4.6339-20-6zm103 4c-2.2598 6.6992-8.7845 16.287-5.7758 22.816 6.8318 1.6899 16.153 10.533 21.897 3.0627 1.4831-6.4221 11.274-18.847 0.93085-21.853-5.6642-1.2356-11.213-4.1227-17.052-4.026zm-77 5c-4.2617 7.1771-14.905 24.74-1.0209 26.326 9.0689 3.496 15.619 7.4776 16.567-4.6925 4.0173-8.2823 9.52-18.712-4.3172-18.891-3.7356-0.95651-7.2663-3.2084-11.229-2.7431zm106 3c-4.7122 6.5587-7.4779 15.207-9 23 6.4959 2.2191 17.242 8.1302 22.75 5.5 2.8217-3.4369 8.9735-16.917 5.8542-21.965-6.5347-2.1782-13.069-4.3565-19.604-6.5347zm-79 5c-4.4368 7.2436-8.8707 16.697-8 25 6.1046 0.13558 22.222 10.873 21 3.5287 3.6473-5.1526 9.8993-16.114 6.684-22.187-6.4663-2.3379-13.142-4.1907-19.684-6.342zm27 9c-3.1367 7.5076-10.454 16.856-7 25 6.4087 0.26809 18.36 10.522 21 4 3.7113-6.7101 7.4115-14.296 8-22-7.3759-2.0124-14.476-6.0397-22-7zm28 9c-4.0423 6.1502-7.9277 15.814-9 24 11.501 4.8959 24.753 8.3737 37 13 0.9344-8.4432 8.5094-15.979 8-25-11.048-5.6612-24.222-7.7917-36-12z" opacity=".99216"/>
  <path d="m220.3 93c3.3357 7.4445 13.395-1.9057 5.3457 10.979-9.5893 4.3378-14.8-1.7912-5.3457-10.979zm1.7 2c-0.86836 9.1095 1.7671 6.4788 0 0zm-3 5c-0.85949 4.7269 2.1403 6.0277 0 0zm4 2 1 1z" opacity=".99216"/>
  <path d="m395.8 93.5c7.9115 0.59235-4.373 13.083-4.2838 19.703-2.2147 9.2448-5.2018-7.8705 1.208-12.684 1.0253-2.3397 2.0505-4.6794 3.0758-7.019z" opacity=".99216"/>
  <path d="m149.3 95c-1.933 15.257-6.1521 2.3824 0 0z" opacity=".99216"/>
  <path d="m408.8 97c8.3404 1.0056-6.8376 13.979-3.9062 20.469-2.9629 7.5526-5.9631-8.0256 0.33948-12.558 1.1889-2.637 2.3778-5.2739 3.5668-7.9109z" opacity=".99216"/>
  <path d="m159.3 98c8.2286 1.6212-0.5981 8.3358 0 0z" opacity=".99216"/>
  <path d="m420.5 100.5c10.381-0.37002-4.905 12.207-2.9874 20.187-8.3956 10.541 0.93716-16.785 2.9874-20.187z" opacity=".99216"/>
  <path d="m171.3 102.5c5.331 5.7089-6.9581 10.274 0.325 1.5-2.0035 3.0292-2.4862-0.85906-0.325-1.5z" opacity=".99216"/>
  <path d="m433.5 104c12.377 0.46557-1.5113 2.3603-0.5 11.8-2.4759 6.9496-2.9377 17.505-6.0126 5.113 2.1144-5.6511 4.351-11.274 6.5126-16.913z" opacity=".99216"/>
  <path d="m160.8 104.5c2.5534 1.4156-2.9965 2.3251 0 0z" opacity=".99216"/>
  <path d="m184.3 106c13.07 3.0442-5.5274 5.1192 0 0z" opacity=".99216"/>
  <path d="m141.8 107c11.013 1.7978-5.867 10.864 0 0zm0.2 1c-3.4565 3.5976 5.8225 4.5156 0 0z" opacity=".99216"/>
  <path d="m446.8 107c11.606 0.92993-2.9815 5.826-1.9806 14.882-0.42858 14.644-8.3856 5.1496-1.5914-5.6824 1.1907-3.0664 2.3813-6.1327 3.572-9.1991z" opacity=".99216"/>
  <path d="m155.8 108c11.842-0.50652-3.7594 6.7208 0 0z" opacity=".99216"/>
  <path d="m195.8 109c4.7672 7.9309-6.864 8.2595 0.7 1.8-2.3472 1.172-2.7649-0.59285-0.7-1.8z" opacity=".99216"/>
  <path d="m201.8 110.5c6.0758 2.0443 15.403 6.2977-0.8 2.3l0.48336-1.3897z" opacity=".99216"/>
  <path d="m459.8 110.5c11.562 1.3624-2.6539 3.9756-1.5852 13.023 0.68554 10.821-7.1449 15.131-4.1171 1.6626 1.9008-4.8951 3.8015-9.7902 5.7023-14.685z" opacity=".99216"/>
  <path d="m182.8 111c8.1862 2.655-7.5631 6.9143 0 0z" opacity=".99216"/>
  <path d="m148.5 111.5c11.798 2.2175-3.5414 6.8541 0 0z" opacity=".99216"/>
  <path d="m154.8 113.5c7.2046 4.2087-4.1419 2.3798 0 0z" opacity=".99216"/>
  <path d="m212.3 113.5c1.5375 3.3099-3.456 3.156 0 0z" opacity=".99216"/>
  <path d="m165.3 114c10.825 3.6438-6.2763 9.1802 0 0zm1.7 2c-6.8993 0.34239 3.3443 5.269 0 0z" opacity=".99216"/>
  <path d="m176.3 114c-2.6833 4.404 9.4758-0.0156 5.7885 4.0848-2.2389-0.31789-9.6263-0.54801-5.7885-4.0848zm5.7 3c-2.7476-1.1381 1.1381 2.7476 0 0z" opacity=".99216"/>
  <path d="m472.8 114c12.569 0.46602-3.4454 5.2622-2.3 14.8-3.9335 16.762 7.3808-8.5564 2.5 7-13.191 6.904-3.7666-12.378-1.3924-18.566 0.39746-1.078 0.79491-2.1561 1.1924-3.2341z" opacity=".99216"/>
  <path d="m221.3 116.5c6.596 6.8734-10.479 9.644 0 0zm-1.3 2.5c-1.3738 1.8452 3.3166 1.0404 0 0z" opacity=".99216"/>
  <path d="m485.5 117.5c13.272 0.83038-3.1602 4.2641-1.4092 14.652-5.0951 17.425 7.8774-8.4903 1.0594 8.5441-10.49 4.7056-3.7838-10.366-2.0613-15.336 0.8037-2.62 1.6074-5.2401 2.4111-7.8602z" opacity=".99216"/>
  <path d="m477.8 118c2.1334 6.1274-6.4328 12.212-1.0068 2.3798l0.57329-1.355z" opacity=".99216"/>
  <path d="m209.3 118.5c2.5957 2.7241-4.5453 2.3288 0 0z" opacity=".99216"/>
  <path d="m229.5 119c17.492 2.1587 1.658 7.2921 0 0zm0.5 1h1zm6 1c-3.3166 1.0404 1.3738 1.8452 0 0z" opacity=".99216"/>
  <path d="m178 120.5c7.2252 1.7451-2.371 3.5768 0 0z" opacity=".99216"/>
  <path d="m200.3 120.5c3.3174 1.8903-2.7623 4.0829 0 0z" opacity=".99216"/>
  <path d="m498.5 121c13.366 0.91235-2.5525 4.7635-1.2712 14.746-4.5084 17.53 7.683-7.8554 1.7047 8.0645-9.1686 7.1223-5.7298-9.5779-2.8162-14.636 0.79424-2.7248 1.5885-5.4497 2.3827-8.1745z" opacity=".99216"/>
  <path d="m149.8 121.5c11.064 5.6439-11.34 13.857 0 0zm0.2 2.5c-7.7358 7.1974 7.0029-0.28488 0 0z" opacity=".99216"/>
  <path d="m189 121.5c12.494-0.0893-4.8695 10.962 0 0zm0 2.5c0.0819 3.6537 7.5461 1.3547 0 0z" opacity=".99216"/>
  <path d="m202.3 121.5c12.839 1.7942-0.40909 6.5722-0.0289 0.0469z" opacity=".99216"/>
  <path d="m490 122c4.1561 3.695-6.196 14.417 0 0z" opacity=".99216"/>
  <path d="m245.3 123c6.2694 2.7871-7.2861 11.22-0.3 4.5-4.1264-0.36717-0.15286-2.5814 0.3-4.5z" opacity=".99216"/>
  <path d="m512.3 124.5c12.409 0.79762-3.584 7.2874-1.8 16.271-4.0909 16.334 6.9194-9.4552 2.5204 6.225-10.378 8.9572-6.4877-10.107-2.9484-15.681 0.74267-2.2717 1.4853-4.5434 2.228-6.8151z" opacity=".99216"/>
  <path d="m233.5 125c4.6635-0.10756-3.0857 5.2969 0 0z" opacity=".99216"/>
  <path d="m162.5 125.5c8.9422 1.3435-3.0119 5.5787 0 0z" opacity=".99216"/>
  <path d="m503.8 125.5c1.796 6.2915-6.579 13.599 0 0z" opacity=".99216"/>
  <path d="m257.3 126.5c9.1098 4.6255-1.5664 4.0386-0.3 3-2.5303 0.61446-0.74941-2.6187 0.3-3z" opacity=".99216"/>
  <path d="m200.8 127.5c2.7758-0.54924 6.1199 5.4908 0 0z" opacity=".99216"/>
  <path d="m214 128c13.533 2.6112-6.2984 9.9906 0 0zm1 1c-4.4566 4.7515 5.9728 1.3579 0 0z" opacity=".99216"/>
  <path d="m525.3 128c12.998 1.5198-2.5354 4.3804-1.2484 14.737-5.3918 17.947 6.135-4.8904 2.3889 7.308-5.7022 9.6356-9.4849-4.3083-4.9238-9.6229 1.6401-4.0453 3.048-8.1061 3.7834-12.422z" opacity=".99216"/>
  <path d="m172.8 128.5c0.45034 6.311 6.7236-1.9571 2.5301 6.1438-1.7176 5.3176-6.8238-0.74901-2.5301-6.1438z" opacity=".99216"/>
  <path d="m225 128.5c3.0166-4e-3 -1.2379 4.252 0 0z" opacity=".99216"/>
  <path d="m226.5 128.5c13.986-8e-3 1.6689 7.908 0 0z" opacity=".99216"/>
  <path d="m516.8 129c2.0242 8.1054-6.205 13.758 0 0z" opacity=".99216"/>
  <path d="m160.8 130.5c-0.86046 2.5392-2.7776 3.4527 0 0z" opacity=".99216"/>
  <path d="m270.3 130.5c5.6799-0.26782-5.1504 14.634-1.8 1.8l1.0404-1.0404zm-1.3 4.5c-1.4527 4.6365 3.6637-1.5036 0 0z" opacity=".99216"/>
  <path d="m161.8 131.5c1.8529 0.67762-2.7723 2.6429 0 0z" opacity=".99216"/>
  <path d="m538.8 131.5c14.417 2.491-3.1935 2.9482-0.3 13.8-4.3774 11.451-0.0261 9.8384 2.5 3.5 1.8591 13.534-14.188 7.8746-6.4576-2.5674 1.4192-4.9108 2.8384-9.8217 4.2576-14.733z" opacity=".99216"/>
  <path d="m221.8 132.5c12.782 4.2615-3.935 2.5498-0.25961 0.25961z" opacity=".99216"/>
  <path d="m257.5 132.5c4.0281-1.709-0.0679 7.5909 0 0z" opacity=".99216"/>
  <path d="m185.8 133c9.6126 1.842 0.15118 5.4868 0 0zm1.2 1c-0.70276 3.2148 3.2148-0.70276 0 0z" opacity=".99216"/>
  <path d="m278.3 133c9.3431 2.7961 0.84076 4.9121-0.31664 0.91033z" opacity=".99216"/>
  <path d="m529.5 133c3.9575 5.1048-5.1771 15.023 0 0z" opacity=".99216"/>
  <path d="m156 134c5.7967 3.535-2.2482 3.9982 0 0z" opacity=".99216"/>
  <path d="m185.3 134c3.0245 1.4923-2.5108 2.5169 0 0z" opacity=".99216"/>
  <path d="m547.3 134c3.3142-0.37643-0.67541 1.5034 0 0z" opacity=".99216"/>
  <path d="m159.3 135c6.282 0.65514-4.8356 5.2049 0 0z" opacity=".99216"/>
  <path d="m229.8 135c-0.52438 3.4188-0.25361 1.8728 0 0z" opacity=".99216"/>
  <path d="m284 135c8.7789 0.24329-1.3152 5.5485 0 0z" opacity=".99216"/>
  <path d="m239 135.5c11.937 1.6319-5.2878 11.918 0 0zm1 1.5c-4.0991 4.6233 0.99972 2.6645 0 0z" opacity=".99216"/>
  <path d="m552.8 135.5c3.3142-0.37643-0.67541 1.5034 0 0z" opacity=".99216"/>
  <path d="m197.5 136c5.4191 1.2484 1.1424 7.9467-2.5 7.5 0.0272-2.7798 1.3424-5.0608 2.5-7.5z" opacity=".99216"/>
  <path d="m554.8 136c3.3142-0.37643-0.67541 1.5034 0 0z" opacity=".99216"/>
  <path d="m254.3 136.5c10.293 3.7725-5.0672 3.1969 0 0z" opacity=".99216"/>
  <path d="m543 137c4.5217 4.0891-5.5115 12.964-0.33936 1.1538z" opacity=".99216"/>
  <path d="m558.3 137c3.3142-0.37643-0.67541 1.5034 0 0z" opacity=".99216"/>
  <path d="m560.3 137.5c10.352-3e-3 20.184 7.6263 13.809 18.409-13.398 50.508-27.353 100.5-40.594 150.99-4.6722 15.275-7.5987 31.331-13.215 46.098-10.381 2.6235-20.437-5.4746-30.631-7.355-16.89-5.615-33.779-11.23-50.669-16.845-0.66599-0.84108-18.216-5.3927-15.7-5.3-5.7657-2.7303-8.5051-3.0246-16-5.5-2.408-1.6306-13.471-3.028-16.5-6-6.473-1.1972-7.7684-2.8551-14.404-3.9389-6.0335-3.0402-8.8969-3.8386-17.396-6.0611-4.6048-2.4878-11.424-3.9879-16.5-5.7-5.6002-2.323-10.282-3.8398-15.2-4.8-4.4426-2.5527-10.975-3.4873-17.59-5.8404-10.967-3.4732-19.816-6.814-30.21-10.16-5.383-1.7022-12.86-4.7151-20.297-6.9357-11.312-4.3356-20.691-6.6509-32.203-10.764-4.1118-2.626-7.4746-2.4748-15.015-5.0153-10.13-3.0564-12.901-4.9666-22.463-7.5179-8.7574-1.9218-13.574-6.218-19.021-6.2667-2.1288-1.6604-15.57-4.7153-22.137-7.4791-4.5039-2.7206-10.43-3.3104-19.146-6.6464-16.768-6.1246-34.645-10.102-50.717-17.574-3.7737-4.8547 12.153 2.6264 16.99 3.6886 25.321 8.9309 50.267 16.52 75.528 25.81 24.175 7.8022 48.074 16.31 72.16 24.311 25.041 7.9503 50.523 18.126 76.122 25.391 14.966 5.802 30.247 10.621 45.71 15.427 20.338 6.7896 41.86 14.187 62.634 20.831 25.783 8.7156 52.163 16.81 77.853 26.02 8.7884 5.8072 15.575-4.9226 17.546-12.871 4.6502-18.872 11.225-37.455 15.555-55.952 5.4786-18.064 10.143-36.06 15.593-54.563 2.7494-9.6377 4.1422-18.681 6.8099-28.294 3.8477-13.184 6.5177-26.068 10.084-38.918 3.2213-8.0441 4.8936-18.058-7.4476-19.541-1.0139-0.79909-3.2305 0.93803-3.337-1.1388zm-463.3 74.5c-1.3738 1.8452 3.3166 1.0404 0 0zm33 12c2.4429 2.509 2.7773 0.55421 0 0zm11 4c0.45827 3.3865 3.9555-1.4236 0 0zm5 2h1zm4 1c-0.45883 2.4909 4.1831-1.3863 0 0zm9 3c-0.41225 3.3326 5.327-1.5976 0 0zm7 2 1 1zm12 4c-0.40335 3.0855 2.5044-1.0278 0 0zm2 1c2.4429 2.509 2.7773 0.55421 0 0zm11 4c0.99237 2.8894 4.0656-1.632 0 0zm30 10c-0.45883 2.4909 4.1831-1.3863 0 0zm236 79c-0.45883 2.4909 4.1831-1.3863 0 0zm53 17c-1.1381 2.7476 2.7476-1.1381 0 0z" opacity=".99216"/>
  <path d="m184.3 138c0.13 3.7658-2.8318 1.0883 0 0z" opacity=".99216"/>
  <path d="m295 138c8.6085 2.6464-5.6697 11.531 0.63391 1.7536-1.101 0.01781-0.62773-1.0302-0.63391-1.7536z" opacity=".99216"/>
  <path d="m186.3 138.5c1.4042 2.1655-4.0054 2.5495 0 0z" opacity=".99216"/>
  <path d="m280.8 139c0.1165 7.3123-5.0826 6.4023-0.3909 0.71665z" opacity=".99216"/>
  <path d="m154.8 139.5c0.36098-6.3745 3.426 9.6042 0 0z" opacity=".99216"/>
  <path d="m246.3 139.5c6.0241 2.1706-2.3502 3.8982 0 0z" opacity=".99216"/>
  <path d="m211 140c2.8243-0.41586-1.045 2.0071 0 0z" opacity=".99216"/>
  <path d="m249.8 140.5c5.4193 1.4487 6.9898 5.1488-1.2993 2.5002l-7.4e-4 -1.7e-4 0.125-1.575zm-0.8 1.5c0.94518 3.4876 2.3671-2.2164 0 0z" opacity=".99216"/>
  <path d="m212.8 141c5.3725 0.37666-2.124 4.2237-0.25961 0.25961z" opacity=".99216"/>
  <path d="m283.5 141c3.9225 1.0015-2.7151 4.5887 0 0z" opacity=".99216"/>
  <path d="m179.8 141.5c10.99 2.7639 0.29183 5.8592-0.12998 0.29995z" opacity=".99216"/>
  <path d="m306.5 141.5c10.472 2.0942 6.758 3.525 2 2.3 0.26075-0.91095-3.4382 1.7226-2-2.3z" opacity=".99216"/>
  <path d="m264.3 143c12.199 1.9592-6.7123 10.446 0 0zm1.7 2c0.94518 3.4876 2.3671-2.2164 0 0zm-2 1c-1.1381 2.7476 2.7476-1.1381 0 0z" opacity=".99216"/>
  <path d="m221 144c9.6451 5.2126-3.4373 9.9979-1.9573 4.9324 0.65244-1.6441 1.3049-3.2883 1.9573-4.9324zm1 2c-1.9358 4.8888 5.046-0.6196 0 0z" opacity=".99216"/>
  <path d="m209.8 145c1.1676 2.5641-2.3531 3.6205 0 0z" opacity=".99216"/>
  <path d="m211.3 146.5c2.5534 1.4156-2.9965 2.3251 0 0z" opacity=".99216"/>
  <path d="m322.3 146.5c9.6333 2.2451-9.5966 16.067 0 0zm0.7 1.5c-0.40335 3.0855 2.5044-1.0278 0 0zm-1 3c-3.3458 3.136 2.9437 1.405 0 0z" opacity=".99216"/>
  <path d="m306.8 147c1.9299 2.5673-3.6242 9.0044-1.3 0.9z" opacity=".99216"/>
  <path d="m178.8 147.5c4.4546 0.37838 3.1186 3.8919-0.0289 0.0469z" opacity=".99216"/>
  <path d="m94.3 148.5c1.4018 1.2878-2.9967 2.1311 0 0z" opacity=".99216"/>
  <path d="m235.5 148.5c8.4836-1.0853-1.3057 5.6749 0 0z" opacity=".99216"/>
  <path d="m274 149c10.748 1.1605 3.7176 6.5288-0.10621 0.38235zm3 1c-2.8894 0.99237 1.632 4.0656 0 0z" opacity=".99216"/>
  <path d="m331.5 149c4.2028-0.26533-1.8087 4.0156 0 0z" opacity=".99216"/>
  <path d="m151.8 149.5c6.7379 10.432-12.324 9.4183 0 0z" opacity=".99216"/>
  <path d="m206 149.5c11.48 2.9154-0.92563 5.2846 0 0z" opacity=".99216"/>
  <path d="m334.3 149.5c5.1486 2.2645-4.7761 4.6757 0 0z" opacity=".99216"/>
  <path d="m337.3 150c11.559 0.37114-5.123 5.9761 0 0zm-0.3 1c-2.2164 2.3671 3.4876 0.94518 0 0z" opacity=".99216"/>
  <path d="m246 151c10.967-1.3268-7.1037 14.721 1 2.3l-0.95-0.875z" opacity=".99216"/>
  <path d="m289.5 151c12.626 0.37605-4.4525 11.481 0 0zm0.5 2c-1.1614 2.6067 2.7368 3.1086 0 0z" opacity=".99216"/>
  <path d="m161.8 152.5c7.1571 0.57733-3.4519 6.644 0 0z" opacity=".99216"/>
  <path d="m164.5 154c3.1898 0.96578 0.62522 5.2282 0 0z" opacity=".99216"/>
  <path d="m166.8 154c2.4786 1.8184-2.9556 0.95769 0 0z" opacity=".99216"/>
  <path d="m234.8 154c0.18591 4.6254-2.0701 1.4661 0 0z" opacity=".99216"/>
  <path d="m349.3 154c3.6688 8.7054-5.9631 9.4808-0.61741 0.88585zm-0.3 2c-1.0798 3.7942 3.1022-0.14379 0 0z" opacity=".99216"/>
  <path d="m203.5 155c4.0406 0.66958-2.1071 3.3964 0 0z" opacity=".99216"/>
  <path d="m205.8 155c4.366 3.0893-0.7029 4.0665 0 0z" opacity=".99216"/>
  <path d="m260.3 155c12.03 2.5481-4.0776 6.6848 0 0z" opacity=".99216"/>
  <path d="m90.8 156c-0.247 3.1701-3.3125 5.9686 0 0z" opacity=".99216"/>
  <path d="m300.3 156c3.6833 3.4986 6.0587 0.49006 6.6398 4.1605-1.1312-1.2999-10.435-0.60476-6.6398-4.1605zm0.7 1c-3.3166 1.0404 1.3738 1.8452 0 0z" opacity=".99216"/>
  <path d="m337.8 156.5c1.1665 3.4196-2.6897 1.87 0 0z" opacity=".99216"/>
  <path d="m175.3 157c5.4165-0.12068-2.1179 12.397-2.5 4.5 5.3808 7.9404-2.2951-4.914 2.5-4.5z" opacity=".99216"/>
  <path d="m359.5 157c4.5532-0.58736-3.3091 5.1403 0 0z" opacity=".99216"/>
  <path d="m158.3 157.5c1.1796 2.0935-1.506 4.0361-0.8 0.8z" opacity=".99216"/>
  <path d="m230.5 157.5c7.5536 1.1207 0.99563 8.0113 0 0z" opacity=".99216"/>
  <path d="m362 157.5c5.5033 2.2036-3.8552 5.0744 0 0z" opacity=".99216"/>
  <path d="m159.5 158c9.5255 1.1806-0.9537 5.5877 0 0zm1.5 1c-1.3738 1.8452 3.3166 1.0404 0 0z" opacity=".99216"/>
  <path d="m364.8 158.5c10.28 2.7246-4.9806 5.1369 0 0zm0.2 0.5c-1.3738 1.8452 3.3166 1.0404 0 0z" opacity=".99216"/>
  <path d="m181.8 159c9.1178 1.8414 11.541 6.4631 4.5 3.5 1.6577-2.8872-8.7448 3.8982-4.5-3.5zm2.2 2c-3.6227 1.7148 2.3507 1.0803 0 0zm4 1c-1.0531 2.3881 1.5379-0.088 0 0z" opacity=".99216"/>
  <path d="m273 159c9.74-2.0913-4.6494 16.562 0 0z" opacity=".99216"/>
  <path d="m316.5 159c13.189 2.1251-6.4844 10.724 0 0zm0.5 1c-4.4539 7.4278 10.015 2.1977 0 0z" opacity=".99216"/>
  <path d="m88.8 160c-4.437 12.334-8.0876 14.376 0 0z" opacity=".99216"/>
  <path d="m331.3 161c9.149-0.28588 5.2254 4.7565 0 0z" opacity=".99216"/>
  <path d="m261.3 161.5c1.3675 2.6816-3.9 3.4808 0 0z" opacity=".99216"/>
  <path d="m376.3 161.5c8.2654 6.8476-10.696 12.778 0 0zm-0.3 1.5c-4.1956 9.5345 3.2837 1.2474 0 0z" opacity=".99216"/>
  <path d="m225.8 162c2.3876 2.5768-3.8734 4.8153 0 0z" opacity=".99216"/>
  <path d="m158.8 162.5c12.148 2.4376-3.7518 4.5326 0 0z" opacity=".99216"/>
  <path d="m224.3 162.5c1.6482 2.6545-2.702 1.5822 0 0z" opacity=".99216"/>
  <path d="m227 163c8.836 0.59188-2.17 5.2977 0 0z" opacity=".99216"/>
  <path d="m285.5 163c4.016 1.6483-2.8284 5.197 0 0z" opacity=".99216"/>
  <path d="m287.3 163.5c10.824 2.2546-0.91291 6.1526 0 0z" opacity=".99216"/>
  <path d="m231.3 164c2.0726 1.8-2.2338 1.7562 0 0z" opacity=".99216"/>
  <path d="m364.8 164c0.76397 3.237-2.7796 3.81 0 0z" opacity=".99216"/>
  <path d="m254.3 164.5c12.546 1.8099 0.99072 7.6825 0 0zm5.7 2.5v1z" opacity=".99216"/>
  <path d="m327 164.5c14.757 0.8613 1.7413 6.2748 0 0zm2 1.5c-1.1381 2.7476 2.7476-1.1381 0 0z" opacity=".99216"/>
  <path d="m386 164.5c4.415 2.4363 11.787 3.5485 2.3 3.5-1.4446-2.6286-4.2155 1.1008-2.3-3.5zm6 2.5c-2.2164 2.3671 3.4876 0.94518 0 0z" opacity=".99216"/>
  <path d="m184.8 165.5c7.7689 0.64167-2.5364 5.9634 0 0zm2.2 1.5-1 1z" opacity=".99216"/>
  <path d="m198.3 165.5c11.758 5.2552-11.625 15.079 0 0zm0.7 2.5c-6.6438 7.9319 3.4861 3.1785 0 0z" opacity=".99216"/>
  <path d="m351.8 166c5.6021 6.9e-4 18.446 7.6104 7 3.5-2.4444 0.37587-10.146 0.0489-7-3.5zm10.2 3c-1.4145 2.6663 3.0625 3.0391 0 0z" opacity=".99216"/>
  <path d="m188 166.5c2.8243-0.41586-1.045 2.0071 0 0z" opacity=".99216"/>
  <path d="m298.5 166.5c-0.4183 9.5018 2.4314 1.8002 4.4536 3.1661-2.2244 9.7574-9.819 3.9251-4.4536-3.1661z" opacity=".99216"/>
  <path d="m284.3 168.5c9.9558 0.32374-1.1244 7.809 0 0zm2.7 1.5c-1.1381 2.7476 2.7476-1.1381 0 0z" opacity=".99216"/>
  <path d="m156.8 169c6.9872 3.2203-2.7488 2.2026 0 0z" opacity=".99216"/>
  <path d="m210.3 169c6.7505 3.6462-5.0866 5.3866 0 0zm-0.3 1c-1.3738 1.8452 3.3166 1.0404 0 0z" opacity=".99216"/>
  <path d="m122.8 169.5c4.7635-0.33344-4.5286 11.081-1.3661 1.6631l0.93391-1.1369z" opacity=".99216"/>
  <path d="m249 169.5c3.9469 1.9046 8.9803 1.7716 6.5853 4.0958-1.2671-2.1516-9.0019 0.2722-6.5853-4.0958z" opacity=".99216"/>
  <path d="m213 170c2.5354-0.48246-0.64062 4.1724 0 0z" opacity=".99216"/>
  <path d="m127.8 170.5c-2.6368 12.756 6.5128-5.1938 7.975 5.05-2.9891 1.9622-1.8914 4.5133-4.7667 0.15455-5.2307 3.957-9.7056-0.28603-3.2083-5.2046zm3.2 2.5c-1.4596 3.2874 2.8213 1.2016 0 0z" opacity=".99216"/>
  <path d="m181.5 170.5c6.1279 1.0623 7.3709 3.9446-0.5 2.5l0.28855-1.4428z" opacity=".99216"/>
  <path d="m215.3 170.5c1.6414 4.5483-3.9692 2.7813 0 0z" opacity=".99216"/>
  <path d="m311.3 170.5c11.929 1.3931-0.45522 6.4025 0 0zm-0.3 0.5c-1.4876 4.4911 3.9451-0.52191 0 0z" opacity=".99216"/>
  <path d="m83.3 171.5c-1.4191 4.698-8.5566 22.093-9.1473 18.481 3.0491-6.1604 6.0982-12.321 9.1473-18.481z" opacity=".99216"/>
  <path d="m278.3 171.5c10.815 2.7492 7.8425 7.998 2.5 2-0.80922 4.3452-5.4486-0.35334-2.5-2z" opacity=".99216"/>
  <path d="m223.8 173c6.8816 0.54152-1.9599 9.0292-2.6576 5.4763 0.88587-1.8254 1.7718-3.6509 2.6576-5.4763z" opacity=".99216"/>
  <path d="m357.3 173c1.0156 1.3492-3.1715 4.6331 0 0z" opacity=".99216"/>
  <path d="m359.3 173.5c1.7431 3.569-3.432 2.303 0 0z" opacity=".99216"/>
  <path d="m360.5 174c2.681-0.65405-0.97268 3.834 0 0z" opacity=".99216"/>
  <path d="m381.8 174c3.3897 3.1716 13.212 4.5719 5.7 2.5 1.574 3.2309-9.2675-0.21007-5.7-2.5z" opacity=".99216"/>
  <path d="m208 174.5c8.8295 0.059 3.7609 5.9244 1.4432 1.0726 0.19079-0.41428-3.27 3.8009-1.4432-1.0726z" opacity=".99216"/>
  <path d="m325.3 174.5c1.9988 6.3157-6.3794 10.942-0.40975 0.92193z" opacity=".99216"/>
  <path d="m184 176c3.1469 0.13704-2.489 4.721 0 0z" opacity=".99216"/>
  <path d="m311.8 176.5c7.9964 0.69-3.7628 5.4499 0 0zm0.2 0.5c-0.93908 2.9739 1.3878 1.5371 0 0z" opacity=".99216"/>
  <path d="m443.3 176.5c8.9154 3.3391 18.777 4.8204 27.2 8.8-0.21915 8.9779-5.3848 17.787-7.5 26.7-9.8071 1e-3 -19.313-5.3617-29-7.5-0.20143-9.1381 4.8555-18.312 7.8614-26.893l0.43855-0.60722zm-0.3 1.5c-3.0018 8.1343-6.56 16.489-8 25 8.375 3.4836 17.639 7.9845 27 8 2.66-8.253 8.2849-17.829 7-26-8.7834-1.8183-17.3-5.4235-26-7z" opacity=".99216"/>
  <path d="m118.8 177c4.3878 4.1261 4.8513 1.8496 7.8568 3.9274 9.3797-6.0122 2.9215 12.581 3.5023 2.6679-2.0953-2.7339-4.3649 3.7439-7.6753 1.629 1.7072-3.0581-10.377-1.3945-3.9838-2.7242-1.3249-1.4677-1.7485-4.462 0.3-5.5zm0.2 2c0.16708 6.5123 4.1885 0.3759 0 0z" opacity=".99216"/>
  <path d="m237.3 177c10.564 0.45427-2.8575 8.75 0 0zm1.7 2h1z" opacity=".99216"/>
  <path d="m151.3 178c8.0527 1.4958-6.1379 14.09-1.3115 4.1327 4.9937-1.7757-0.052-2.0144 1.3115-4.1327z" opacity=".99216"/>
  <path d="m337.8 178.5c15.428 2.0501-3.0372 7.8671 0 0zm0.2 1.5c-0.75637 2.7333 2.7333-0.75637 0 0zm2 0c-3.3166 1.0404 1.3738 1.8452 0 0z" opacity=".99216"/>
  <path d="m208.3 179.5c10.42 2.7314-5.2255 6.3422 0 0z" opacity=".99216"/>
  <path d="m284.3 179.5c0.26167 3.4543-3.0066 4.0934 0 0z" opacity=".99216"/>
  <path d="m378.3 179.5c5.0358 0.75509 13.159 5.8326 3.5 3-2.8251 0.64925-4.5447-1.5267-3.5-3zm1.7 1.5c-2.2164 2.3671 3.4876 0.94518 0 0z" opacity=".99216"/>
  <path d="m250.8 180.5c7.355 3.1813-8.9892 7.0338 1.7 4.5-2.2207 11.381-10.061-1.4453-1.7-4.5z" opacity=".99216"/>
  <path d="m311.5 182c4.873-0.62616-2.3941 5.0545 0 0z" opacity=".99216"/>
  <path d="m236.5 182.5c6.6014 1.2821-0.0108 5.3435 0 0z" opacity=".99216"/>
  <path d="m166.3 183c2.4648 1.7952 0.21947 4.507 0 0z" opacity=".99216"/>
  <path d="m353.3 183.5c14.156 4.438-11.866 16.35 0 0zm0.7 1.5c-6.9871 7.8262 7.0318 4.6414 0 0z" opacity=".99216"/>
  <path d="m207.3 184c2.5103 0.93555 1.3732 7.034 0 0z" opacity=".99216"/>
  <path d="m339.3 184.5c1.6414 4.5483-3.9692 2.7813 0 0z" opacity=".99216"/>
  <path d="m453.3 184.5c14.158 6.9067-8.9509 8.0388 0 0z" opacity=".99216"/>
  <path d="m263.8 185c8.0733 0.65551-0.35887 7.3261 0 0z" opacity=".99216"/>
  <path d="m340.5 185c2.8021 0.0932-1.6698 3.6906 0 0z" opacity=".99216"/>
  <path d="m175.8 185.5c9.1997 2.4231-7.0814 14.152-0.8 4.3l-0.25-2.775z" opacity=".99216"/>
  <path d="m233.3 187c7.057 2.3554-1.3082 13.125 0.225 2-2.4471 0.79319-0.90588-0.61061-0.225-2z" opacity=".99216"/>
  <path d="m310.5 187c2.7312 1.4966-3.3608 6.6337 0 0z" opacity=".99216"/>
  <path d="m365.8 187c9.9016 2.4244-2.8876 5.2587 0 0zm2.2 1c-1.4596 3.2874 2.8213 1.2016 0 0z" opacity=".99216"/>
  <path d="m275.3 188.5c2.4765 1.5311 6.2708 5.8904 0.2 7.8 0.44093-4.2716-6.5004 3.1349-0.46964-7.2035z" opacity=".99216"/>
  <path d="m333 188.5c6.0469 0.99947 9.3889 4.8777 3.3 2.5-1.4936 1.5603-5.774 0.44715-3.3-2.5z" opacity=".99216"/>
  <path d="m370.5 188.5c5.4353 0.82878-3.2102 4.7373 0 0z" opacity=".99216"/>
  <path d="m259.8 189.5c10.523 5.2055 0.13878 2.4918-0.125 2.825-1.416 1.2216-0.93619-2.7845 0.125-2.825z" opacity=".99216"/>
  <path d="m189 190c2.9685 0.33277-2.6247 4.9249 0 0z" opacity=".99216"/>
  <path d="m190.5 190.5c7.4138-0.73194-2.5918 5.8112 0 0zm1.5 0.5c-3.3166 1.0404 1.3738 1.8452 0 0z" opacity=".99216"/>
  <path d="m158.8 191.5c14.128 1.7084-4.1464 6.6135 0 0zm0.2 1.5c-3.8015 2.5745 3.2999-0.75008 0 0z" opacity=".99216"/>
  <path d="m380.3 191.5c10.146 4.2453-9.8047 12.226 0 0zm0.7 2.5c-3.2108 7.0329 5.8712-2.3038 0 0z" opacity=".99216"/>
  <path d="m444.3 192c6.564 2.2445 4.8506 3.3649 11.2 3 5.5667 5.7032-3.3882 4.7732-3.5 1.8-1.4679 2.1272-8.0852 0.28737-8.5457-3.7074l0.04572-0.29262zm2.7 2c-1.2982 4.8591 3.4561 0.17996 0 0zm7 2c2.8992 2.5967 2.5603-1.2518 0 0z" opacity=".99216"/>
  <path d="m289.3 193c12.084 0.7462-4.051 7.0283 0 0zm1.7 1c-1.3738 1.8452 3.3166 1.0404 0 0z" opacity=".99216"/>
  <path d="m200.8 194c7.055 3.0963-5.1911 3.9364 0.5 8-6.5505 2.3804-3.425-5.8897-0.5-8z" opacity=".99216"/>
  <path d="m512.3 194c7.5492 2.828 19.646 3.9617 22.7 9.3-2.5238 8.6482-2.9637 19.748-13 23.5-3.8919 7.9058-16.478-2.6887-23.84-3.0103-12.537-1.5992-1.1564-16.26-0.62465-23.799 1.0915-9.8475 9.2313-1.1221 14.765-5.9912zm-9.3 3c-5.6921 6.1437-6.6028 15.94-8 24 7.3838 0.62659 19.508 10.347 24 4 2.7718-5.8107 10.177-18.875 4.2678-23.093-6.6542-1.6836-13.639-3.3309-20.268-4.9071z" opacity=".99216"/>
  <path d="m256.8 194.5c6.2064 1.4553 8.4575 3.6085 1.5 3-2.0656 0.28502-3.6504-1.5315-1.5-3zm2.2 1.5c-1.1381 2.7476 2.7476-1.1381 0 0zm3 1c-0.70691 3.0974 2.3736-2.0142 0 0z" opacity=".99216"/>
  <path d="m368.5 194.5c3.0712-0.51625-0.51625 3.0712 0 0z" opacity=".99216"/>
  <path d="m335.8 195c5.4119 1.4065-3.6035 5.1332 0 0z" opacity=".99216"/>
  <path d="m189.8 195.5c2.3745 2.9396-4.3515 5.36 0 0z" opacity=".99216"/>
  <path d="m368.3 196c3.3294-5e-3 -3.4698 3.3509 0 0z" opacity=".99216"/>
  <path d="m395 196c3.4756 0.16216-3.0054 3.7143 0 0z" opacity=".99216"/>
  <path d="m156.3 196.5c9.9942 2.5898-4.022 5.1976 0 0z" opacity=".99216"/>
  <path d="m396.5 196.5c5.1489-0.30324 0.15648 5.681 0 0z" opacity=".99216"/>
  <path d="m209.8 197c-0.47687 1.2842 15.034 4.1288 2.2953 2.8408-2.0831 0.43004-4.1823-0.20063-2.2953-2.8408z" opacity=".99216"/>
  <path d="m361.8 197c16.939 3.5878-2.2627 7.5146 0 0z" opacity=".99216"/>
  <path d="m160.8 198c2.17 2.3328-3.5339 2.5496 0 0z" opacity=".99216"/>
  <path d="m303.3 198c0.52071 10.427-8.5338 7.4172-0.54282 1.2508z" opacity=".99216"/>
  <path d="m74.3 198.5c3.4063 1.8987-0.37914 4.0472 0 0z" opacity=".99216"/>
  <path d="m290.3 198.5c1.0905 5.1727-3.6672 3.3285 0 0z" opacity=".99216"/>
  <path d="m181.8 199c1.7068 3.61 9.0078 0.3688 6 3.5-1.8733 0.13248-10.116 0.63328-6-3.5zm0.2 1c-2.2164 2.3671 3.4876 0.94518 0 0z" opacity=".99216"/>
  <path d="m260 199c3.8279 1.2881-3.6194 9.3672 0 0z" opacity=".99216"/>
  <path d="m226.3 202c0.31187 5.9821 7.6435 1.5349-1.8 8.3 0.70903-2.7074 0.14907-5.9432 1.8-8.3z" opacity=".99216"/>
  <path d="m281.3 202c9.277 1.4342 10.476 6.5024-0.8 3l-0.1-1.9zm2.7 2c-2.7476-1.1381 1.1381 2.7476 0 0z" opacity=".99216"/>
  <path d="m315.8 202c9.2877 2.6936-2.5482 6.1648 0 0z" opacity=".99216"/>
  <path d="m360 203.5c6.3444 1.5636 4.8509 4.0451-0.21145 1.0572zm1 0.5c-2.8894 0.99237 1.632 4.0656 0 0z" opacity=".99216"/>
  <path d="m215.3 204c4.0182 0.34882-2.7104 6.6081 0 0z" opacity=".99216"/>
  <path d="m394.8 204.5c2.0078-0.97733 1.5269 2.3492 0 0z" opacity=".99216"/>
  <path d="m183 205.5c9.5494 2.4812-2.3394 4.627 0 0z" opacity=".99216"/>
  <path d="m328.5 205.5c6.8816-2.7952 2.1843 13.176 0.38939 5.9214-5.3919 6.8502-1.6852-2.8704-0.38939-5.9214z" opacity=".99216"/>
  <path d="m388.5 205.5c11.54 2.1726 4.9593 4.9214-0.5 2.3l0.31255-1.4378z" opacity=".99216"/>
  <path d="m238.8 206.5c-1.8687 4.3606 9.9372-0.52547 3 3.5-1.8401-1.3934-6.8287 0.28245-3-3.5z" opacity=".99216"/>
  <path d="m505 206.5c3.1414 1.7915 14.283 1.4282 12.5 5.8-3.6383-3.68-0.2691 2.6961-9.5883-0.76896-2.781-2.1561-4.1783-0.3585-2.9117-5.031zm5 2.5c-1.973 4.3604 3.0437 1.2079 0 0z" opacity=".99216"/>
  <path d="m207.8 207.5c14.615 1.7691-2.0588 7.226 0 0zm0.2 1.5c-0.75637 2.7333 2.7333-0.75637 0 0zm2 0c-3.3166 1.0404 1.3738 1.8452 0 0z" opacity=".99216"/>
  <path d="m278.8 207.5c8.3611 1.9411 7.1154 4.8078-0.8 1.8l0.59756-1.3445zm0.2 0.5c-1.4876 4.4911 3.9451-0.52191 0 0z" opacity=".99216"/>
  <path d="m316.3 209c2.7714 0.30917 1.0987 2.1171 0 0z" opacity=".99216"/>
  <path d="m181.3 209.5c3.3142-0.37643-0.67541 1.5034 0 0z" opacity=".99216"/>
  <path d="m286.8 209.5c1.344 3.4922-3.3986 3.3679 0 0z" opacity=".99216"/>
  <path d="m252.8 210c11.512 3.5232-8.9746 15.704-1.3 1.8l0.86145-1.1928zm0.2 3c-1.021 3.1823 4.9636-1.4418 0 0zm-1 2c-2.1048 3.9745 5.5688 1.7528 0 0z" opacity=".99216"/>
  <path d="m343.8 210.5c3.475-1.6004 4.9239 8.0237 0 0z" opacity=".99216"/>
  <path d="m309 212c0.85724 1.5168 11.785 2.1309 3.0219 3.5299-2.0372-1.0388-4.7336-0.33995-3.0219-3.5299z" opacity=".99216"/>
  <path d="m390.8 212c0.38854-1.0306-0.13133 6.698-0.8 0.8z" opacity=".99216"/>
  <path d="m204 212.5c2.8366 0.93786 10.71 3.8161 6.025 3-0.87152 1.2631-7.8066-0.0194-6.025-3z" opacity=".99216"/>
  <path d="m242.3 213.5c-1.337 3.2649-2.3547 3.7914 0 0z" opacity=".99216"/>
  <path d="m356.8 213.5c3.5261 10.032-7.9566 14.71 0 0z" opacity=".99216"/>
  <path d="m267 215c10.476 0.26759-1.9974 7.597 0 0z" opacity=".99216"/>
  <path d="m236.8 217c4.456 2.4644 3.5019 5.5369-1.225 1.1zm0.2 1c-3.178 1.3439 2.3976 3.8375 0 0z" opacity=".99216"/>
  <path d="m344.8 217c2.9496 2.8959-4.4249 1.6985 0 0z" opacity=".99216"/>
  <path d="m307.5 218c3.6944-0.72681-1.2683 4.3362 0 0z" opacity=".99216"/>
  <path d="m310.3 218c3.5315 2.5646-2.9949 4.2768 0 0z" opacity=".99216"/>
  <path d="m278 218.5c2.5006 4.5474 7.4267 1.168 0.5 8.8 3.8838-10.267-7.2354 5.308-0.5-8.8z" opacity=".99216"/>
  <path d="m313.8 218.5c-1.3469 5.4796-8e-3 1.266 0 0z" opacity=".99216"/>
  <path d="m370.5 218.5c3.9321-0.18016 6.9355 5.6945-0.10621 0.38235z" opacity=".99216"/>
  <path d="m339.3 220.5c5.7358 0.66425 4.5538 5.3278-0.31664 0.91033z" opacity=".99216"/>
  <path d="m266.3 221c4.6185 2.065-3.4919 3.8462 0 0z" opacity=".99216"/>
  <path d="m230.8 221.5c0.3249 3.7241 11.319 1.9966 3.1317 3.959-1.8329-1.1288-5.7262-1.7418-3.1317-3.959z" opacity=".99216"/>
  <path d="m288 222c8.3796 0.85625 10.336 4.9194 5 4-2.8407-1.1757-6.6771-0.75273-5-4zm4 2c-1.1381 2.7476 2.7476-1.1381 0 0z" opacity=".99216"/>
  <path d="m256.8 223c8.4712 0.77979 13.651 8.1117 1.0487 3.2581-2.6997 0.14245-2.5621-1.5549-1.0487-3.2581zm2.2 2v1z" opacity=".99216"/>
  <path d="m330.3 223.5c11.18 1.903-0.75048 7.2972 0 0zm1.7 1.5c-1.6541 4.2917 4.1593 0.87191 0 0z" opacity=".99216"/>
  <path d="m337 226c3.4839 0.52583-2.6223 4.3466 0 0z" opacity=".99216"/>
  <path d="m371.5 226c5.1372-1.8064-0.55342 6.022 0 0z" opacity=".99216"/>
  <path d="m338.8 226.5c7.1474 0.2594-0.40215 7.1938 0 0z" opacity=".99216"/>
  <path d="m305.5 227.5c3.151 2.6058 6.6549 5.0314 1.5 7.8-3.8132 1.2778-4.8288-1.3758-1.5-7.8z" opacity=".99216"/>
  <path d="m382.3 228c3.6882 5.4769 15.104 1.958 12.7 5.8 0.13385 9.7755 0.94087-3.4034 6.5 1.9713 0.75353 6.8981-11.642 5.005-8-2.7713-6.4459 9.4068-0.46408-4.9508-7 3.8 3.01-5.879-12.321 5.8172-4.2-8.8zm0.7 2c0.57401 5.2355 6.2026 0.78205 0 0zm-1 3c2.5868 4.8627 5.456-1.6875 0 0zm17 2c-2.0926 5.1102 5.2693-1.4132 0 0z" opacity=".99216"/>
  <path d="m255 228.5c13.617 2.1039 1.2042 8.1423-0.0162 0.0974zm5 2.5c-1.1381 2.7476 2.7476-1.1381 0 0z" opacity=".99216"/>
  <path d="m367.8 229c10.538 0.24218-0.49254 6.7526 0 0z" opacity=".99216"/>
  <path d="m294.3 231.5c3.3294-5e-3 -3.4698 3.3509 0 0z" opacity=".99216"/>
  <path d="m323.5 232.5c6.0334 0.60016-2.9723 5.6786 0 0z" opacity=".99216"/>
  <path d="m287.3 233c15.831 0.79615-3.3786 7.902 0 0zm2.7 2c-3.5354 3.0284 3.4332-1.7088 0 0z" opacity=".99216"/>
  <path d="m364.3 235c4.248 1.8134-4.4677 3.4554 0 0z" opacity=".99216"/>
  <path d="m366 235c11.715 2.1685-2.7505 3.6675 0 0z" opacity=".99216"/>
  <path d="m284.5 238.5c11.397 1.8271-1.4646 5.8179 0 0zm0.5 0.5c-1.1614 2.6067 2.7368 3.1086 0 0z" opacity=".99216"/>
  <path d="m334.3 239c4.4536 1.1724-3.8704 8.4991 0 0zm-0.3 3c-1.8756 0.5855 1.2843 1.9269 0 0z" opacity=".99216"/>
  <path d="m454.3 239.5c8.1252 1.7934 16.215 0.96827 23.845 4.5976 16.212 0.026 9.1544 16.119 3.1555 25.402-11.067 4.5839 2.8136 10.476 9.4147 8.9042 5.3266 4.7883 18.922 2.0949 19.296 9.7832-3.5436 8.0981-2.9756 19.22-12.51 22.813-4.3115 9.0481-17.622-2.2761-25.656-2.923-21.187-7.8533-43.485-12.875-64.344-21.277 0.75404-9.1956 5.5868-18.567 8.4074-27.481 9.1488-2.7533 19.621 2.8293 29.001 5.5761 4.5085-7.0973 4.9228-18.003 9.3918-25.396zm2.7 3.5c-3.1874 6.9624-8.8672 16.99-6.7758 23.816 7.4796 1.2378 17.092 9.52 23.857 4.1031 0.0192-6.5792 10.187-18.909 2.5234-22.384-6.5366-1.6554-12.835-5.4137-19.604-5.5347zm-37 19c-6.2784 4.725-6.5174 15.91-9 23.471 5.664 3.4882 16.773 8.2318 22.757 7.267 2.8603-7.318 9.5909-17.906 6.243-24.738-6.6667-2-13.333-4-20-6zm29 9c-5.2253 5.5184-5.5057 16.046-10 23 4.873 5.5861 15.425 4.419 22 9 6.9134-1.1836 6.517-14.193 9.8737-20.433 2.2807-9.0622-14.261-7.279-20.194-11.063l-1.4093-0.42278zm28 10c-3.1517 7.4324-5.3975 15.475-8 23 6.2437 5.1779 15.724 6.3676 23.471 9 5.262-6.5165 7.3507-16.536 8.5287-25-7.8086-2.5858-15.769-6.5704-24-7z" opacity=".99216"/>
  <path d="m290.3 240c4.6347 1.03-4.205 4.4473 0 0z" opacity=".99216"/>
  <path d="m336.8 240c3.0224 3.0401 12.429 1.661 11.343 6.7274-1.1888 2.1612-11.752-2.543-10.367-4.6112-1.8594 4.7924-2.1836 0.36053-0.97578-2.1162zm9.2 4c-4.6907 4.3128 3.5695 3.2488 0 0z" opacity=".99216"/>
  <path d="m321.3 240.5c3.2231 0.5072-2.8976 1.8337 0 0z" opacity=".99216"/>
  <path d="m313.3 241.5c1.5412 2.6295 9.4213 0.75748 6.0885 4.5848-2.8152-1.3868-9.0296-1.5807-6.0885-4.5848z" opacity=".99216"/>
  <path d="m307.5 246.5c5.5523-0.168 16.97 7.3347 4.8 4.5-1.305-3.3261-6.0147 0.77057-4.8-4.5z" opacity=".99216"/>
  <path d="m330.8 246.5c2.9973 4.8034 1.0753 0.56209 5.475 4.55 4.2652-4.9606 2.1653 5.1725 4.3613 0.53557 10.549-7.4898 3.097 12.724 4.1721 1.885-3.2428-4.8797-5.0921 7.2476-7.3431 0.43362-0.83837-0.26025-1.8527-0.68579-8.0829-0.29797-0.61774-4.7496 1.4727 0.0576 1.4176-7.1062z" opacity=".99216"/>
  <path d="m373.8 248.5c10.683-0.2531 3.5512 9.3993 9.5 3 0.10561 4.0999 5.6781 1.2686 2.3 4.075-4.0993 0.12725-11.302-0.95278-13.032-4.1322 0.41062-0.98093 0.82124-1.9619 1.2319-2.9428zm3.2 2.5c-1.6258 1.4499 3.4411 1.335 0 0zm-3 1h1z" opacity=".99216"/>
  <path d="m466.8 250c4.6627 2.8254-7.9119 21.748-3.4528 8.0966 1.8312-4.0348-1.3507-4.8891 3.4528-8.0966z" opacity=".99216"/>
  <path d="m367.8 257.5c10.057 0.24862 2.9254 13.17-2.8 4.5 7.5227 5.258-3.2084-3.2497 2.8-4.5zm0.2 1.5c0.11311 4.5148 4.4012 3.9802 0 0zm4 2c-0.93703 2.3902 2.6651 1.1626 0 0z" opacity=".99216"/>
  <path d="m376 260.5c7.8009 8.3506-9.2102 9.8665 0 0zm0 3.5h1z" opacity=".99216"/>
  <path d="m379.8 262c6.5944 1.485 9.4411 2.9469 3.7573 5.5 7.378 5.5714-12.699 1.0842-3.7573-5.5zm0.2 2c-4.0933 8.8866 8.7391-0.34106 0 0z" opacity=".99216"/>
  <path d="m424.3 272.5c7.8415 5.1484 12.956 5.4545-0.5 4.5-2.0268-3.967-6.2387-3.5279 0.5-4.5z" opacity=".99216"/>
  <path d="m458 278.5c3.2011 3.6188-4.1169 21.68-4.5 8.8 2.9099-0.68791 2.9027-6.4501 4.5-8.8z" opacity=".99216"/>
  <path d="m477.5 292c4.6793 1.5677 20.995 3.6658 9.8573 6-0.18379-3.3582-8.2539-2.6702-9.8573-6z" opacity=".99216"/>
 </g>
 <g fill="#cfcfcf" stroke="#cfcfcf">
  <path d="m164.8 32.5c6.0387-0.35915 1.8863 1.3552 0 0z" opacity=".50196"/>
  <path d="m159.3 35c-0.16667 0.33333-0.16667 0.33333 0 0z" opacity=".50196"/>
  <path d="m154.8 41.5c-0.16667 0.33333-0.16667 0.33333 0 0z" opacity=".50196"/>
  <path d="m153.8 43c-0.16667 0.33333-0.16667 0.33333 0 0z" opacity=".50196"/>
  <path d="m152.8 44.5c-0.16667 0.33333-0.16667 0.33333 0 0z" opacity=".50196"/>
  <path d="m151.8 46c-0.16667 0.33333-0.16667 0.33333 0 0z" opacity=".50196"/>
  <path d="m150.8 47.5c-0.16667 0.33333-0.16667 0.33333 0 0z" opacity=".50196"/>
  <path d="m146.3 54c-0.16667 0.33333-0.16667 0.33333 0 0z" opacity=".50196"/>
  <path d="m145.3 55.5c-0.16667 0.33333-0.16667 0.33333 0 0z" opacity=".50196"/>
  <path d="m144.3 57c-0.16667 0.33333-0.16667 0.33333 0 0z" opacity=".50196"/>
  <path d="m143.3 58.5c-0.16667 0.33333-0.16667 0.33333 0 0z" opacity=".50196"/>
  <path d="m142.3 60c-0.16667 0.33333-0.16667 0.33333 0 0z" opacity=".50196"/>
  <path d="m137.8 66.5c-0.16667 0.33333-0.16667 0.33333 0 0z" opacity=".50196"/>
  <path d="m136.8 68c-0.16667 0.33333-0.16667 0.33333 0 0z" opacity=".50196"/>
  <path d="m135.8 69.5c-0.16667 0.33333-0.16667 0.33333 0 0z" opacity=".50196"/>
  <path d="m134.8 71c-0.16667 0.33333-0.16667 0.33333 0 0z" opacity=".50196"/>
  <path d="m130.3 77.5c-0.16667 0.33333-0.16667 0.33333 0 0z" opacity=".50196"/>
  <path d="m129.3 79c-0.16667 0.33333-0.16667 0.33333 0 0z" opacity=".50196"/>
  <path d="m128.3 80.5c-0.16667 0.33333-0.16667 0.33333 0 0z" opacity=".50196"/>
  <path d="m127.3 82c-0.16667 0.33333-0.16667 0.33333 0 0z" opacity=".50196"/>
  <path d="m126.3 83.5c-0.16667 0.33333-0.16667 0.33333 0 0z" opacity=".50196"/>
  <path d="m455.3 109.5c3.3142-0.37643-0.67541 1.5034 0 0z" opacity=".50196"/>
  <path d="m74.3 195.5c0.60181 3.9877-0.73919 3.6399 0 0z" opacity=".50196"/>
  <path d="m163.8 33c5.9094 0.78804 24.371 1.5661 19.252 8.4727-5.3814 4.8715-13.983 22.827-1.3936 13.011-5.2647 4.1463 0.34233-6.2333 5.5714-13.313 11.523-6.606 7.5664 6.1808 1.1091 11.871-6.6966 11.774 3.3378 6.7329 5.2882-2.2606-0.47067-6.7297 14.166-12.868 12.259-4.5214-4.2608 4.1747-13.466 21.802-5.7016 15.316 3.2716-4.0546 5.7731-15.055 13.116-16.576 11.573 2.2737-5.9829 13.218-5.8 20.271 6.2197 4.6806 6.0631-10.049 11.959-14.672 9.5022-7.418 11.097 4.2056 2.9556 10.387-6.6103 11.527 1.752 9.171 4.1819-1.1588 0.0412-9.3421 18.184-12.11 10.974-2.2235-8.9794 7.5692-6.6224 23.644 1.8643 8.3375-8.3491 12.128-2.7535-2.5808 1.6765-8.5225 6.1306-8.8002 14.895 1.5322 4.9296 8.1141-8.0893 7.6997 0.19245 15.732 1.5922 3.9021 0.94177-7.8337 13.251-17.985 13.95-8.3566-2.5574 4.6324-13.298 20.745-3.5836 16.721-0.75308-6.5651 10.859-25.789 16-14-5.797 4.8223-11.172 24.98-5 15 4.8231-6.2211 6.4022-20.602 17.02-14.416 0.21179 6.1542-13.343 16.185-6.5049 21.443 2.6538-3.2934 4.6484-12.527 8.6518-17.452 11.228-7.54 9.3128 6.5936 2.9487 12.928-4.6395 13.786 4.8019 3.2787 6.7827-5.463 0.73366-11.597 18.671-5.4892 7.971 3.2617-7.7518 4.3677-2.1806 19.943-0.8695 9.1979 4.4853-6.9429 5.5996-21.194 16.553-14.114 0.0359 5.9622-12.261 16.04-6.5943 21.006 4.2717-1.5682 4.1354-14.413 10.341-19.692 14.704-1.2476 3.6848 11.009 0.97613 18.177 1.4652 12.089 3.9654-0.76233 6.7117-7.2528-0.59282-11.213 19.068-8.7276 9.8493 0.71796-7.3269 4.789-2.901 21.821-1.3371 11.687 4.0037-6.253 4.8316-21.492 14.652-15.605 4.8778 5.2706-10.88 16.512-4.2019 22.327 4.3605-1.0366 3.3905-18.078 11.284-20.22 13.855-0.64218 0.78445 12.27-0.39548 19.196 3.6966 11.78 4.5636-4.3005 8.3032-10.429 0.85656-11.133 18.432-3.2169 8.2053 4.7397-7.7266 7.3388-0.38486 20.442 0.65304 7.9633 3.0306-6.0714 3.5513-19.14 13.206-13.819 4.9362 5.2966-7.0069 14.386-5.2061 22.019 7.6392 4.1423 2.8663-11.54 9.159-16.781 5.9178-8.7562 15.751 2.4549 6.5899 9.8507-7.6593 7.9465 3.1778 17.249 1.2684 5.4696 2.7644-7.218 5.4279-20.032 15.483-13.039-8.9158 8.9604-5.201 35.154-1.3194 13.718-1.7047-11.955 18.559-17.104 11.665-3.3575-6.2449 5.4142-2.679 21.869-0.34544 13.439-5.1161-12.753 17.693-27.788 13.843-11.024-6.9593 6.1573-2.6069 22.982-1.3429 14.724 3.1197-5.3774 2.2951-18.815 9.7026-18.516 11.895-1.1791 1.8048 12.385 0.39773 18.349 0.50618 12.862 5.0004 2.1094 5.9515-5.8162-1.0126-8.4113 8.6455-12.548 12.756-6.5576 0.26749 7.1373-10.688 17.342-3.5457 22.204 8.1685 2.4161 6.4125-18.074 2.5377-1.6625-2.0112-4.6115 1.4877-19.557 7.4131-19.584 12.771-1.6931 2.8507 11.906 1.6289 18.7-5.123 11.552 12.562 5.0048 6.758-2.216-4.8822 15.297-4.0498-2.4726-0.088-8.7196 3.5849-10.764 17.631-1.2612 8.6942 8.1199-6.7109 6.7532 1.2478 20.879 4.9312 8.2347 1.8001-8.1005-7.4899 11.069-2.7099-5.9446 1.9448-8.4818 4.8865-14.093 13.873-10.09 1.1368 7.8245-7.5831 16.368-4.8 24.5 10.708 2.2722 7.8075-15.282 3.1667-2.1222 0.98999-6.2137 1.3552-19.272 8.6333-19.378 12.491-2.0292 2.1944 11.634 2.2 17.8-6.6473 15.739 13.969 0.29465 5.154 1.4301-4.9435 12.477-1.1928-8.8213 1.0058-13.071 2.2491-7.1972 17.241-2.0366 9.5174 7.1578-3.1631 5.3272-5.4768 21.735 3.6927 14.759 4.4026-17.379-4.1144 6.8487-3.2903-4.1283 2.7894-5.8896 1.6215-18.027 8.9454-17.448 9.3197 2.7671 20.207 3.5785 27.975 9.8 1.0649 8.128-3.7719 14.866-4.658 23.316-3.9896 13.673-6.474 28.301-11.342 42.184-0.77293 12.549-7.2736 24.971-9 37.5-4.8076 12.777-7.0202 25.872-11.5 38.5-3.361 14.439-8.0052 27.926-11.598 42.345-3.2735 6.4278-1.5575 17.331-10.402 19.355-3.0707 9.3354-13.846-2.5266-20.603-1.9838-23.252-8.2338-47.014-15.489-70.097-23.516-15.801-4.7065-33.117-10.62-49.5-16.5-12.672-3.4712-27.198-8.7287-39.314-12.86-26.243-8.2793-52.449-17.319-78.686-26.64-15.325-4.3404-30.995-10.876-46.735-15.323-20.333-7.4431-40.767-14.187-61.438-21.017-22.514-8.0854-45.346-15.381-68.327-23.16-7.2218-2.7166-7.8428-15.31-2.6006-21.715 15.748-33.761 32.291-67.131 48.625-100.7 11.485-16.229 21.695-33.509 33.975-49.082 1.1667-0.5 2.3333-1 3.5-1.5zm23.2 13c-2.3436 0.06802-0.52771 3.7853 0 0zm12 1c-3.2714 3.4619-1.9994 6.6428 0 0zm12 2-1 1zm-1 1c-3.3166 1.0404 1.3738 1.8452 0 0zm-27 1c-1.3738 1.8452 3.3166 1.0404 0 0zm26 1c-2.509 2.4429-0.55421 2.7773 0 0zm13 0c-4.525 5.463-3.0916 5.9474 0 0zm12 1c-5.6526 7.2077-4.0253 9.3158 0 0zm-40 1c-7.0147 8.4524 0.69555 7.4099 0 0zm51 2c-7.8607 9.8723-0.32683 6.8643 0 0zm-40 1c-7.0147 8.4524 0.69555 7.4099 0 0zm12 3c-4.148 6.222-4.9663 7.4495 0 0zm11 3c-11.117 14.447 1.5171 2.192 0 0zm-61 15c-1.7237 2.0821-16.73 11.733-2.8697 10.058 8.2726-8.4032 7.5755-7.0708-0.13031 0.94192 6.6362 0.7857 19.053-11.008 4.3411-10.617zm10 6c-9.3037 9.5299 1.9486 7.8311 7 10 2.1979 2.4096 11.384 0.74775 10 4 7.0545-4.8192 5.4838-8.2696 5 1 7.3438-12.21-0.0753 5.2407 6.1172-1.8229-3.7821 7.1232 8.13 3.197 6.8828-4.1771-1.8106 2.1784-12.989-4.0714-15.471-4-5.0822 8.3325-1.599-7.2203-9.5287 3 7.5899-9.4387-8.0177-4.5278-10-8zm-28 9c3.7447 5.045 22.771 1.7976 14.821 12.696-3.0034 7.0074-6.1508 19.304-15.198 12.787-12.544-8.5787-12.204-0.78056 0.37765 2.5166 4.4556 0.49722 22.38 1.4005 17.684 9.632-3.9759 5.6929-6.0066 17.881-12 16.71-6.4751 0.33066-16.902-12.705-15.684-3.342 10.02 3.2546 19.709 6.2483 30 9-2.209 7.0154-6.7873 18.516-9.4428 21.711-8.3275-1.5165-15.602-5.344-22.443-8.2886-6.2399-4.7604-31.681-3.8494-15.281 0.37053 6.9776 3.9395 21.4 1.733 23.166 10.149-4.835 6.0622-5.2807 22.946-12.583 18.196-8.4411-4.1902-20.307-3.8965-26.417-11.139-2.6899 9.638 15.818 8.307 22.768 12.793 48.652 16.507 98.036 30.01 146.23 48.207 18.74 5.7674 37.665 12.331 56.562 18.187 19.845 5.9558 39.284 14.41 59.38 18.813 4.5282-6.2005 11.343-9.3685 12.485-18.71 5.6187-7.0042-2.641-14.138 4.5726-17.29 1.2092-6.5277 9.9746-15.969 5-21-8.346-1.1429-19.852-4.5424-9.2426-13.447 2.7381-7.4003 10.504-16.472-0.22873-18.553-8.7445-0.3071-12.666-6.9916-3.5287-12 1.0407-6.2081 8.4519-18.257-2.2242-17.816-8.1075-4.7239-16.101-3.3036-24.232-7.3919-8.952-3.3315-18.75-3.793-27-8-7.7315-1.4718-15.207-4.5495-23.232-5.987-10.349-4.6508-17.534-4.6038-26.311-8.8049-7.079 0.17188-15.29-6.5114-21.396-4.4653-4.9798-4.5407-13.84-5.5749-20.032-8.1779-9.1272 1.8626-15.999-5.552-25.521-7.3308-7.143 1.8199-14.036-4.5458-22.523-6.026-6.8265 1.5101-12.353-4.0058-20.052-5.514-8.7311-1.3444-12.596-4.5977-21.829-6.0656-5.4428-4.7049-10.871 0.55272-16.648-2.4204zm71 0c-3.7067 11.061-1.8513 2.1363-5 11 12.458 2.4922 8.1791 0.4157 13.119-4.9907 3.063-9.5321-5.6878 4.2919-8.1192-6.0093zm-71 2c-3.6398 3.3472-2.6932 12.423 1 2l-0.658-1.316zm10 3c3.4231 6.8682 6.5044 1.7346 0 0zm2 7c-3.8498 1.3228 3.2307 0.90278 0 0zm-19 2c-7.6227 11.27 12.614 2.3358 0 0zm14 1c-5.374 6.7977 11.061 0.85085 0 0zm-7 4c-3.7638 7.1431 10.7 0.41522 0 0zm6 2c-3.947 2.6058 5.9256 3.3366 0 0zm323 4c-5.9954 11.756 0.65082 10.083 0 0zm-328 4c-11.983 18.068 12.406 1.7427 0 0zm340 0c-6.6475 12.671 4.7031 4.6576 0 0zm-327 4c-3.5465 4.7948 7.3709 1.4774 0.52867 0zm341 0c-7.3612 13.32 2.0845 6.0279 0 0zm13 3c-5.6063 10.281 1.4865 10.808 0 0zm-357 3v1zm1 0c-1.6258 1.4499 3.4411 1.335 0 0zm369 1c-3.6349 10.517 0.77519 11.368 0 0zm-374 1c-1.2829 8.2437 5.104 0.43255 0 0zm3 1c-5.1416 4.0892 8.4452 1.2649 0 0zm384 2c-6.4803 16.472 5.3359 4.6648 0 0zm-388 3c5.426 6.5044 0.25069-0.17303 0 0zm-3 10c-11.283 6.8333 3.8118 11.519 1 0.0573v-0.0573zm10 3c-3.9798 6.6268 7.8492-0.26956 0 0zm3 1c-1.0055 5.2222 4.4595 2.0961 0 0zm-7 4c-3.4227 7.0684 3.7902 0.21739 0 0zm2 0c-2.6457 4.9952 8.2554 0.92671 0 0zm-1 5c-4.1785 5.9086 11.072-0.30498 0 0zm-2 6c-2.9096 1.8587 6.4074 2.7934 0 0zm-34 1c-5.1552 12.519 2.8692-1.7456 1.5-0.5zm5 1c-9.811 9.8559 4.0481 3.2561 5.9306 6.7916-5.4459 3.5353 7.8386-4.8317-0.93055-4.7916-5.7702-1.0525-3.6914 7.6665-5-2zm315 6c-5.0251 5.7927-5.6714 16.388-9 24 0.59078 8.7441 15.743 6.7333 22.5 10.923 10.392 4.2283 8.512-12.287 12.329-18.14 7.5058-10.842-6.0128-10.776-13.318-13.208-4.1706-1.1916-8.3411-2.3832-12.512-3.5748zm-324 0c-2.6176 7.168-1.5877 8.1804 3 5 1.0778 9.2151 4.9626-10.667-2 0-4.9708-6.4889 5.4085 0.22951-1-5zm7 3c-5.6396 7.6197 2.1569 7.119 0 0zm1 0c-5.183 13.518 5.9979-5.6314 2.25 7.5 3.6418-4.782 7.0114-5.6779-2.25-7.5zm385 14c-8.1425 1.8513-15.479-0.26457-15.792 11.375-5.5568 9.518-5.0227 19.861 8.0023 20.212 9.6863 4.2231 17.344 6.3422 24.028-2.4864 5.133-5.0126 6.4084-16.751 5.7616-22.101-7.2031-0.56782-14.115-6.161-22-7zm-58 46c-3.8141 7.7559-4.9099 17.088-9 25-9.4024-2.0348-21.526-9.2198-29.658-4.684-2.0728 8.4887-7.197 17.549-7.684 26 14.604 8.5256 32.943 10.729 48.952 16.987 13.514 3.577 26.561 10.128 40.39 11.697 1.9836-7.5826 12.066-10.512 11-20 7.7761-10.024-3.7592-12.92-12-14-6.1948-5.3541-18.601-4e-3 -19-8.9427 8.0571-3.3771 17.599-23.2 7.5287-26.057-8.4328-0.18074-15.612-6.7968-24.529-5-1.9991-0.41988-3.9144-1.2749-6-1z"/>
  <path d="m174.5 81c2.8243-0.41586-1.045 2.0071 0 0z"/>
  <path d="m164.3 83c2.7928 0.86464-5.1001 4.2708 0 0z"/>
  <path d="m178.3 85.5c0.11962 5.6261-6.1335 6.1762 0 0z"/>
  <path d="m185.5 88c3.4011 1.5887-6.4734 8.4288 0 0z"/>
  <path d="m190.3 91.5c1.7731 1.8937-2.7901 0.75614 0 0z"/>
  <path d="m206.8 93c-0.16667 0.33333-0.16667 0.33333 0 0z"/>
  <path d="m220.8 94c-0.16667 0.33333-0.16667 0.33333 0 0z"/>
  <path d="m222.3 94.5c0.67451 5.8474-1.6595 9.4893 0 0z"/>
  <path d="m219.8 95.5c-0.16667 0.33333-0.16667 0.33333 0 0z"/>
  <path d="m228.8 96.5c-0.60861 2.0726-1.7024 2.3907 0 0z"/>
  <path d="m227.3 99c-0.60861 2.0726-1.7024 2.3906 0 0z"/>
  <path d="m171.8 100c5.7272 2.6394 23.116 1.9716 16.272 11.77-4.2685 5.7915-4.4907 19.432-13.885 12.63-10.064-0.57234-14.539-7.7656-7.2783-16.016 1.7709-2.5878 2.2912-6.6525 4.8921-8.3841zm-0.8 3c0.52944 1.646-3.4286 12.625 2.974 1.052 0.95481-1.8291-2.3354-1.8588-2.974-1.052zm13 3c-2.0438 8.0487 10.341 0.6423 0 0zm-1 5c-6.9853 3.677 6.5548 4.7286 0 0zm-18 3c-4.247 11.272 10.519 2.3392 0 0zm11 0c1.7616 7.8972 13.305 1.7412 2 2-3.8584 2.8212 0.55064-3.046-2-2zm2 7c0.7837 4.772 5.4337-1.2898 0 0z"/>
  <path d="m219.3 100c0.62837 4.2226-0.6501 4.8066 0 0z"/>
  <path d="m223.3 101.5c1.7731 1.8936-2.7901 0.75614 0 0z"/>
  <path d="m195.8 107c6.833 2.9487 23.889 2.0654 16.157 13.203-2.4667 7.0363-5.7648 18.192-14.566 10.979-11.09 0.30138-12.21-8.5788-6.4293-16.389 1.2957-2.6219 2.3452-6.2014 4.8387-7.793zm0.2 2c0.26261 2.3692-4.536 13.46 1.8656 1.6717 0.64579-1.0161-0.92556-2.1591-1.8656-1.6717zm6 2c6.8505 8.7022 14.543 2.2097 0 0zm10 3c-3.5874 2.5549 3.5874 2.5549 0 0zm-3 5c-4.0712 4.0221 4.218 0.32299 0 0zm-9 2c-1.1798 5.6638 4.8525-1.7245 0 0zm-11 1c-4.5977 11.225 13.174-0.36613 0 0zm13 0c0.2341 7.1791 14.537-0.1696 0 0zm-1 6c2.3881 6.7324 6.6346-3.2797 0 1z"/>
  <path d="m142.3 108c4.2443 4.4323-3.8133 4.0067 0 0z"/>
  <path d="m205.8 112.5c-0.16667 0.33333-0.16667 0.33333 0 0z"/>
  <path d="m220.3 114c5.3383 3.2679 22.278 0.75872 17.541 10.505-4.2928 5.7611-4.7995 21.623-13.989 14.521-10.293-0.59851-16.138-7.1198-8.8745-16.34 1.5595-2.9456 2.085-7.0528 5.3225-8.6858zm0.7 3c-9.0023 10.918 6.8167 4.9858 0 0zm9 2c-0.82601 6.521 15.838 1.7978 0 0zm4 6c-3.1282 5.0612 3.0026 1.0558 0 0zm-20 3c-5.7666 11.234 13.569 2.2815 0 0zm11 1c-1.1556 4.339 2.4828-0.8578 0 0zm2 0c2.6988 6.5267 11.631 1.4887 2.2084 0.0694-0.69131-0.2992-1.4965 0.10346-2.2084-0.0694zm-5 4c-0.8679 5.0205 9.3548 0.82488 0 0zm-1 1 1 1zm5 0c-1.6072 4.2378 5.2051 0.75844 0 0zm4 1c-3.5874 2.5549 3.5874 2.5549 0 0z"/>
  <path d="m167.3 115.5c1.9438 5.7092-7.2915 0.97266 0 0z"/>
  <path d="m181.8 116.5c1.7731 1.8936-2.7901 0.75614 0 0z"/>
  <path d="m220.3 119c1.4018 1.2878-2.9966 2.1311 0 0z"/>
  <path d="m230 119.5c2.8243-0.41586-1.045 2.0071 0 0z"/>
  <path d="m235.8 121c1.7731 1.8936-2.7901 0.75614 0 0z"/>
  <path d="m245.3 121c5.2524 3.8882 22.32 1.5668 17.947 10.963-3.9515 5.4722-4.2335 21.63-13.947 14.537-8.6393-0.41905-17.159-5.3917-10.024-14.513 1.8465-3.5557 2.5336-8.699 6.0244-10.987zm-0.3 2c-3.5042 7.3233-0.14379 10.879 1 2 2.8426 2.9344 2.2571-2.9705-1-2zm12 4c0.64013 6.0752 5.4547 0.0802 0 0zm-1 1c-1.4145 2.6663 3.0625 3.0391 0 0zm4 0c-6.1842 2.8185 11.329 3.7973 0 0zm-2 5c-0.18849 3.9256 2.683-0.21033 0 0zm-19 3c-4.5161 10.203 11.508 1.2949 0 0zm15 1c-2.0104 3.0921 9.9993 2.4448 0 0zm-8 3c-3.524 3.561 5.8116 2.129 0 0zm4 1c-3.9097 3.0239 8.4999 3.3182 0 0zm4 2c-2.7702 6.0053 5.5284-2.6065 0 0z"/>
  <path d="m149.8 123.5c5.0372 2.4156-6.197 5.8791 0 0z"/>
  <path d="m189 124c6.4396-0.47335 1.0756 4.0636 0 0z"/>
  <path d="m172.8 127.5c5.4195 2.579 21.846 1.2136 17.667 10.555-3.6049 7.6864-6.3924 21.633-16.667 12.945-14.318 0.62599-7.3796-13.513-2.9272-20.884 0.6424-0.87183 1.2848-1.7437 1.9272-2.6155zm0.2 1.5c-5.5959 9.6881 2.792 9.8998 4.75 0.75-2.2038 2.7399-3.0708 1.9753-4.75-0.75zm14 5c-0.55731 5.973 7.7737-1.2562 0 0zm-2 0c-1.4596 3.2874 2.8213 1.2016 0 0zm-1 5c-2.7476-1.1381 1.1381 2.7476 0 0zm2 0c-1.1381 2.7476 2.7476-1.1381 0 0zm-6 3c-4.6223 4.3329 11.041 2.9543 2.684 1.658-0.93777 0.87603-0.75208-1.7309-2.684-1.658zm-1 6c4.5697 3.4919 2.9046 0.94017 0.75-0.5z"/>
  <path d="m270.8 128.5c5.6612 3.4684 21.898 1.3779 18.134 11.158-3.7056 5.7907-4.7708 20.825-13.706 14.913-6.859-2.0785-18.343-3.5937-11.53-13.345 2.093-4.257 3.1352-9.8569 7.1023-12.726zm-0.8 2.5c-6.6795 16.168 5.0326-1.0968 3 1l-1.25-1.25zm8 2c0.93197 7.295 10.768 2.8613 0 0zm6 2c-2.6516 6.2327 10.25 0.24018 0 0zm-3 4c-5.0135 5.372-2.05 9.869 0 0zm3 2c-3.7078 5.2179 3.2802 1.8437 0 0zm-20 2c-4.4646 12.031 11.477 1.1589 0 0zm10 6c-0.51702 6.171 6.8582 1.5018 0 0zm3 1c1.081 6.2485 7.4406 0.49371 0 0z"/>
  <path d="m214.8 129c7.8842 0.69122-5.6653 5.4482 0 0z"/>
  <path d="m187 134c3.0712-0.51625-0.51625 3.0712 0 0z"/>
  <path d="m197.3 134.5c5.4522 2.9594 21.968 1.3485 17.586 10.408-3.5535 5.8808-4.6608 20.304-12.718 15.276-9.0794-1.8122-18.347-5.9902-10.19-15.998 1.3857-3.4754 2.7655-6.879 5.3225-9.6858zm0.7 1.5c-6.319 11.953 4.035 7.3179 0 3 2.4451-0.40717 7.8055-1.6291 0-3zm13 4c-1.1381 2.7476 2.7476-1.1381 0 0zm2 1c-1.0465 5.1843 4.3877 0.43581 0 0zm-3 4v0zm1 2c-1.7967 3.1768 3.8412-0.20395 0 0zm-5 3c-1.9533 5.1273 12.528 1.1914 0 0zm-2 5c-3.1104 2.7495 4.3416 1.6334 0 0zm2 0c-1.5815 4.9876 4.9832 1.8688 0 0z"/>
  <path d="m269 134.5c3.8527 0.45446-2.7237 3.9597 0 0z"/>
  <path d="m280.8 134.5c-0.16667 0.33333-0.16667 0.33333 0 0z"/>
  <path d="m296.3 136c6.1569 3.6704 24.135 1.5295 18.086 12.408-3.0081 8.5032-6.5017 21.452-17.536 12.267-17.876 1.5499-5.0242-18.199-0.55-24.675zm-1.3 2c1.4878 4.8195-2.8776 11.255 4 1zm12 4c1.4682 2.7675 6.8332 4.0184 7 1-2.3333-0.33333-4.6667-0.66667-7-1zm0 5c-4.0696 4.0185-0.9378 10.787 0 0zm-17 4c-4.2146 11.605 11.06 0.5795 0 0zm10 5c9.9535 7.1711 2.3833 1.2723 0 0zm6 2c-2.4204 4.6675 4.7497 0.64524 0 0z"/>
  <path d="m239.8 136.5c2.2121 2.1288-3.6682 4.652-0.43855 0.60722z"/>
  <path d="m221.3 142.5c5.8815 1.5564 20.409 1.3625 19.096 9.1417-4.4239 5.1156-3.4214 20.145-12.936 16.749-9.8714-2.2193-18.765-6.3817-10.63-17.267 1.1826-3.0591 2.3139-6.0944 4.4692-8.6245zm-0.3 1.5c-4.6705 8.1099 1.8548 10.011 4 4-0.24948-2.1795 1.3034-5.7665-4-4zm15 5c-3.0652 5.2475 8.0032-1.095 0 0zm-2 6c-1.3738 1.8452 3.3166 1.0404 0 0zm-3 3c0.6949 7.5481 6.0292-0.11218 0 0zm-5 4c-3.7542 3.6957 1.884 3.8831 0 0zm-2 1c-2.2164 2.3671 3.4876 0.94518 0 0zm3 0c-1.3745 5.6868 9.001 0.47554 0 0zm4 1c-1.3738 1.8452 3.3166 1.0404 0 0z"/>
  <path d="m321.8 144c5.8704 2.2994 22.227 1.5583 19.716 10.073-3.4013 5.9947-3.5369 21.338-13.119 16.483-7.1969-2.331-19.843-3.2531-12.853-13.623 2.3961-3.8483 2.5296-10.498 6.2553-12.933zm0.2 3c-7.9925 13.791 9.1576 1.1541 0 0zm10 2c-1.1983 4.3187 3.1546-0.1876 0 0zm2 1c-1.8253 5.9757 5.2154-1.8562 0 0zm3 0c-4.0984 4.4194 7.1132 2.1741 1 1.25zm1 7c-2.3436 0.068-0.52771 3.7853 0 0zm-21 2c-1.8113 2.2298 7.4142 4.9393-2 4 3.9114 6.0592 9.7475-4.4649 2-4zm14 2c1.996 4.2822 11.941 0.74869 0 0zm-4 4c0.48697 3.9194 12.146 2.5675 3-0.25-0.95741 0.4293-1.994 0.21584-3 0.25z"/>
  <path d="m265.5 144.5c4.9412-0.21684-0.30269 3.6226 0 0z"/>
  <path d="m263.5 145.5c4.0272 0.0574-1.7803 3.2727 0 0z"/>
  <path d="m222.3 146c4.7079 0.82913-3.1817 3.1932 0 0z"/>
  <path d="m322.5 148c3.1555-0.7361-1.1648 3.3388 0 0z"/>
  <path d="m247.3 149.5c5.3528 3.9726 20.652 1.2512 18.621 10.153-4.0536 6.1124-4.8707 23.125-15.121 15.347-11.519-0.13321-15.256-7.9887-8.4236-17.242 1.5575-2.7243 1.6185-6.97 4.9236-8.258zm-1.3 1.5c-5.4879 13.357 9.3687 1.1391 0.67173 0.13435zm14 4c-2.1686 6.5827 11.294 3.1111 0 0zm1 7c-1.3738 1.8452 3.3166 1.0404 0 0zm-7 3c2.2361 7.079 10.88 0.82631 3 0.52867-0.67217 0.56662-1.14-0.94458-3-0.52867zm-5 5c3.8117 6.0115 12.874 2.3565 4.0573 1-1.4325 3.0163 0.43661-3.0535-4.0573-1z"/>
  <path d="m321.8 150.5c2.4215 2.063-2.9488 2.825 0 0z"/>
  <path d="m348.3 151.5c6.1404 3.2387 19.718 1.0593 20.7 9.2427-3.4055 5.7659-3.4354 18.695-11.125 18.932-4.9549-4.2694-19.622-1.3453-17.375-10.375 2.7032-5.8029 3.3226-13.074 7.8-17.8zm0.7 2.5c-3.3592 7.2036-0.79892 11.543 3 1zm11 3c-5.1789 6.4086 3.2677-0.15544 0 0zm2 1c-3.2245 5.9098 5.7529-0.40756 0 0zm3 1c-4.5502 5.4094 9.0662 1.7252 0 0zm0 5v1zm-13 2c-2.4404 3.5765 12.365 8.1454 12 3-4.9144 0.65103-8.4698-1.2265-12-3zm7 8c-2.926 1.9568 3.2274 3.0938 0 0zm-3 0c-1.3276 3.917 4.0295 0.49548 0 0zm5 0c-1.1556 4.339 2.4828-0.8578 0 0z"/>
  <path d="m151.3 153c-0.16667 0.33333-0.16667 0.33333 0 0z"/>
  <path d="m290.3 153c2.7864 2.2887-3.2102 2.3853 0 0z"/>
  <path d="m174.8 155c5.311 3.2532 21.458 1.4349 17.542 10.616-5.1839 5.5829-4.612 21.425-14.319 15.154-9.356-1.3332-16.655-7.4664-8.9372-16.537 1.6006-3.1349 2.5312-7.339 5.7146-9.2329zm0.2 2c-2.0547 6.5993-2.3565 10.319 0.95961 3.9596-2.1666-2.6286 5.9272-0.0222-0.95961-3.9596zm7 2c0.88577 3.4431 6.2867 6.6681 9.9306 3.2084-6.0801-2.6412-8.4592 0.42606-9.9306-3.2084zm3 7c-0.98803 5.4989 5.7874-0.61595 0 0zm3 1h1zm-6 4c-0.30624 8.4157 5.6486-1.8215 0 0zm3 1c-2.1582 5.9735 6.7547-1.4942 0 0zm-1 4c-1.1364 7.361 2.5437-0.56596 0 0z"/>
  <path d="m349.3 156c0.81324 3.5571 0.56912 0.37304 0 0z"/>
  <path d="m272.8 157.5c6.3731 2.3281 16.951 2.2963 20.2 8.3-4.882 5.217-3.2816 19.342-11.7 18.7-7.7047-2.4026-23.58-4.0163-14.129-16.285 1.5548-3.8007 2.7287-7.6646 5.6287-10.715zm0.2 1.5c-6.0452 18.999 12.039-3.4571 0 0zm13 4c-3.7078 5.2179 3.2802 1.8437 0 0zm1 1c2.511 6.5219 9.4194 0.74248 0 0zm-3 5c-1.9322 6.8404 10.868-0.62257 0 0zm-6 3c1.6505 4.5491 4.3202 4.155 9.658 3.684-1.951-3.3005-6.3214-0.16403-9.658-3.684zm6 9c-3.3166 1.0404 1.3738 1.8452 0 0z"/>
  <path d="m365.3 159c1.4018 1.2878-2.9966 2.1311 0 0z"/>
  <path d="m375.3 159.5c9.5187 2.0632 28.3 3.4328 18.248 17.12-1.103 10.147-8.8374 14.117-17.087 8.106-12.96 0.57838-8.6695-10.373-5.0021-18.011 1.0584-2.5382 1.4142-5.5336 3.8411-7.2151zm0.7 2.5c-12.422 16.727 10.707 2.227 0 0zm10 3c2.6709 8.596 13.761-1.0798 3 2.75-1.9963-0.66713 2.1009-4.0207-3-2.75zm-4 9c-3.4542 6.5836 8.6224 2.3346 0 0zm3 2c3.1814 5.7766 9.7596-2.5432 0 2 0.23977-0.17827 2.0359-3.7567 0-2zm-7 4c5.1417 6.5647 13.684 1.7324 2.2084 0.0694-1.7555 0.90643-0.93399-1.5886-2.2084-0.0694z"/>
  <path d="m187.8 161.5c2.4221 0.39256-1.7029 3.2375 0 0z"/>
  <path d="m198.8 163c5.9253 2.5203 18.449 1.4696 19.2 8.8-3.9575 5.5505-4.0783 20.83-13.516 17.542-7.4496-2.3786-19.157-4.9046-11.72-14.975 1.5274-4.074 3.2769-7.9624 6.0364-11.367zm-0.8 3c-11.365 17.979 13.895 1.4913 0 0zm12 3c-0.54459 9.3028 5.9285 1.0572 0 0zm3 1c-1.2668 4.4069 2.8075-0.7386 0 0zm2 1c-4.5489 3.0983 4.0206 3.5085 0 0zm-7 4c-2.4073 5.5085 5.0938-2.0102 0 0zm2 0c-1.2008 4.5217 9.6209 2.8665 0 0zm-2 5c-5.4389 7.131 11.833 0.73136 0 0zm-1 4c0.46728 4.9862 3.6517 3.0459 0 0z"/>
  <path d="m376.3 163c2.1828 3.8935-4.3046 6.4207 0 0z"/>
  <path d="m298.8 165c5.8551 1.976 21.069 1.8772 19.694 9.5655-3.5691 6.245-4.0169 22.515-13.89 17.255-14.91-1.4678-17.023-10.442-8.6041-23.021 0.93333-1.2667 1.8667-2.5333 2.8-3.8zm0.2 2c-8.5126 15.258 10.191 1.4579 2.4536 2.3661-4.65 8.9688-0.79306-2.0528-2.4536-2.3661zm12 4c6.0899 8.6312 6.9784-3.3717 1 2-1.738 0.73797-0.85739-1.1426-1-2zm1 6c-0.92055 2.9538-1.0155 0.57327 0 0zm0 5c-4.7938 7.221 6.1817-1.7002 0 0zm-1 5c-3.4891 6.326 2.7363 1.3804 0 0z"/>
  <path d="m392.3 166.5c2.7864 2.2887-3.2102 2.3853 0 0z"/>
  <path d="m198.5 167.5c5.0137 3.4902-5.2866 6.7529 0 0z"/>
  <path d="m361.8 169c2.8984 1.9221-2.3705 2.1924 0 0z"/>
  <path d="m210.3 170c1.7731 1.8936-2.7901 0.75614 0 0z"/>
  <path d="m224.3 170.5c5.7179 2.8349 18.195 1.6584 19.162 8.6694-4.0555 5.8391-4.0372 20.445-12.351 18.864-5.8646-3.8463-20.662-3.2204-13.945-13.821 2.3312-4.4144 3.0489-10.623 7.1346-13.712zm-0.3 2.5c-7.1667 12.157 3.3313 4.3266 1.3958 2.4653 4.6106 1.5322 1.8974-3.3398-1.3958-2.4653zm13 4c-2.8439 7.7671 11.856 2.7027 0 0zm0 6c1.9718 4.7128-0.67537 0.19892 0 0zm-4 4c2.4921 7.123-0.0658 9.5882 4.9306 1.2084-1.0173-0.67692-3.4233-0.7899-4.9306-1.2084z"/>
  <path d="m131.3 173c1.2341 2.2592-2.617 2.7576 0 0z"/>
  <path d="m325.3 173c6.4264 2.6995 18.833 2.1099 20.7 9.3-3.7566 5.8414-3.7904 21.236-13.071 18.167-5.8507-3.7521-20.868-2.3475-14.533-12.854 2.3139-4.8465 3.0466-10.674 6.9042-14.613zm-0.3 2c-5.876 11.725 2.6679 4.2884 0.52867 0zm13 4c-5.1324 5.8447 18.541 3.2535 0 0zm1 6c-4.5489 3.0983 4.0206 3.5085 0 0zm2 0c-1.1556 4.339 2.4828-0.8578 0 0zm-8 4c-1.7432 7.0102 13.809 0.74457 0 0zm6 1c-2.2833 5.2456 5.0141 0.87489 0 0zm-3 5c-5.6415 6.2768 6.5556 1.7473 0 0z"/>
  <path d="m151.8 175.5c5.9361 3.2231 23.519 2.3565 16.272 12.77-6.2881 5.6703-2.6752 21.608-12.514 14.297-7.1762-1.3522-18.091-5.2091-11.167-14.146 2.2678-4.2956 3.4066-9.9434 7.4098-12.922zm-0.8 2.5c-0.20939 6.0631-2.581 13.029 3.5 2.75 2.3259-2.8734-2.3214-1.8652-3.5-2.75zm17 6c-3.4323 0.55768 3.3608 3.3519 0 0zm-2 0c-0.56934 3.5659 1.365 1.4681 0 0zm-7 8c-3.346 5.4671 11.626 0.91918 0.67173 0.13435zm-3 5c-2.7469 5.3974 8.3116 2.5529 0 0zm5 1c-3.1627 2.8674 2.4391 1.8276 0 0z"/>
  <path d="m443.3 178c8.7118 2.5144 18.701 4.3394 26.7 8.3-2.2341 8.3983-5.0446 16.606-8.2 24.7-9.3519-1.3413-18.677-4.5611-27.3-8.2 2.1887-8.1703 4.3361-17.559 8.8-24.8zm9.7 7c-7.3727 8.0249 13.802 4.2946 0 0zm-9 7c-1.7057 7.9377 6.6589 3.0856 8 7 0.45326-0.64131 5.8972-0.65021 1-4-3.8463 0.13062-3.087-0.27131-9-3zm12 4c-4.8495 7.3134 7.8757 1.9264 0 0z"/>
  <path d="m238.5 178.5c2.8243-0.41586-1.045 2.0071 0 0z"/>
  <path d="m249.8 178.5c6.4442 1.9698 16.716 2.4805 20.2 8.3-4.1456 6.4318-5.1475 22.953-14.477 18.97-6.7245-2.8163-19.82-4.2465-12.302-14.42 1.7873-4.5328 3.4093-9.0565 6.5795-12.85zm1.2 2.5c-12.277 6.1381 7.5902 12.173-1 4-5.0889 3.135 7.2679-2.6822 1.2084-3.9306zm13 4c-2.0909 6.8131 7.0486 0.92052 0 0.52867zm-4 5c-5.6166 3.7442 9.2104 4.5787 3 2 0.56924-2.0658-2.4743-0.67724-3-2zm-3 5c-3.1822 6.2762 8.0633-0.48269 0 0zm4 1c-4.9159 5.1752 7.6448-0.0924 0 0zm-1 3c-2.257 8.6085 2.6765 2.8174 0 0z"/>
  <path d="m337.5 179.5c3.0712-0.51625-0.51625 3.0712 0 0z"/>
  <path d="m339.8 180c1.7731 1.8936-2.7901 0.75614 0 0z"/>
  <path d="m341.8 180.5c-0.16667 0.33333-0.16667 0.33333 0 0z"/>
  <path d="m380.3 180.5c1.6482 2.6545-2.702 1.5822 0 0z"/>
  <path d="m353.3 181c5.7057 4.2083 20.726 1.7846 19.693 10.681-3.3102 6.1206-4.3058 22.572-14.325 17.003-6.9579-3.1038-19.731-3.4848-12.618-14.017 2.3333-4.4428 2.4798-11.06 7.2502-13.667zm-0.3 3c-8.9079 14.204 12.797 1.6216 0 0zm13 3c0.49913 6.1191 7.4975 1.1083 0 0zm5 2c-3.2823 3.0311 4.2691 1.747 0 0zm-2 6c-0.75637 2.7333 2.7333-0.75637 0 0zm-1 1c-1.4596 3.2874 2.8213 1.2016 0 0zm-6 1c-4.6449 6.5142 18.669 4.6185 0 0zm-2 7c3.9233 5.5767-0.94791 0.65828 0 0zm4 1c-1.5678 5.0046 4.8952-2.111 0 0z"/>
  <path d="m176.3 183.5c6.0778 2.9965 23.827 2.4496 16.815 12.791-6.0118 6.9904-3.0409 21.608-14.072 14.177-9.4613-0.0973-16.126-8.1958-9.0551-16.391 1.8913-3.5477 2.7519-8.3187 6.3122-10.577zm-0.3 2.5c-7.4468 11.528 4.2264 8.6092 2.25 0.25-1.0623 3.8974-1.575 0.78902-2.25-0.25zm13 4c-3.039 6.8172 2.9369-0.32992 0 0zm2 1c-3.7537 8.3456 8.7449-3.9202 0 0zm-1 5c-5.3067 5.9573 3.5771 0.75296 0 0zm-8 3c0.69108 8.061 11.57 1.7317 3.658 1.684-3.603-0.20229 0.9404 3.469-3.658-1.684zm1 7c-0.32006 5.8938 8.9384 0.57532 0 0zm-2 4c2.7304 0 1.8786 0 0 0z"/>
  <path d="m354.3 185c5.3534 5.9396-7.5032 7.0327 0 0z"/>
  <path d="m275.8 186.5c6.2658 2.4288 18.688 1.939 20.2 9.3-4.0267 5.851-3.7158 20.62-13.087 18.713-5.7509-4.4412-20.553-2.6602-14.281-13.429 2.6662-4.46 3.218-11.497 7.1682-14.584zm-0.8 2.5c-6.016 8.8785 2.9634 8.027 3.7388 4.9429 2.777-7.0097-2.526-0.7469-3.7388-4.9429zm14 4c-2.8566 7.8912 11.437 0.36491 0.67173 0.13435zm1 6c-4.9444 4.767 3.1851 2.2496 0 0zm-9 3c3.9881 8.1608 13.77 2.874 1.8125 0.60418l-1.3958-0.46528zm-2 6h1zm-1 0c-1.3738 1.8452 3.3166 1.0404 0 0zm2 0c-2.358 6.8367 8.8999 0.43621 0 0zm7 2c-2.3659 2.938 0.84205 2.8155 0 0zm-3 1c-1.6258 1.4499 3.4411 1.335 0 0z"/>
  <path d="m379.3 189.5c12.491 1.2315 27.843 5.195 18.037 19.331-0.26869 11.426-9.8091 10.417-17.294 6.0045-12.742 0.75932-7.597-10.373-4.5732-17.698 0.79527-2.8295 1.8901-5.397 3.8309-7.6376zm0.7 2.5c-9.3375 16.76 10.679-1e-3 0 0zm15 4c-1.1381 2.7476 2.7476-1.1381 0 0zm2 1c4.9277 6.2446-0.13951-0.23951 0 0zm-2 8c1.9269 1.2843 0.5855-1.8756 0 0zm-6 1c-1.6308 5.965 14.165 2.0878 0.90172 0.36069zm2 6c-1.1381 2.7476 2.7476-1.1381 0 0zm-1 1c-0.99627 3.5273 3.9317 2.692 0 0z"/>
  <path d="m191.8 191c1.4018 1.2878-2.9966 2.1311 0 0z"/>
  <path d="m201.3 191.5c5.9917 3.6539 23.811 1.6235 17.535 12.388-5.1342 6.4376-3.4211 21.969-12.883 15.504-6.1067-2.1566-18.095-3.4675-12.82-12.808 2.441-5.0217 3.7592-11.494 8.1682-15.084zm-0.3 2.5c-7.2636 8.8093 3.9226 10.765-1 3 2.321-2.0343 5.041 3.4731 3.25-2.5zm9 3c1.7671 8.9497 13.735-1.1814 0.342 2.316-1.4003 2.3387-0.28707-1.9965-0.342-2.316zm5 7c-0.6059 6.4487 4.3148-0.0193 0 0zm-7 4c-0.47828 8.3009 12.049 0.21276 0 0zm-4 5c-0.18332 6.0593 10.356 1.6851 3 1-1.3724 0.0461-0.83446-2.0226-3-1zm7 2c-3.0819 3.1395 4.0005 0.17594 0 0z"/>
  <path d="m158.8 192.5c2.4275 0.0544-2.3874 2.2229 0 0z"/>
  <path d="m380.5 193.5c5.4519 0.59546-1.8861 4.4641 0 0z"/>
  <path d="m291.3 194c1.7731 1.8936-2.7901 0.75614 0 0z"/>
  <path d="m447 194c1.1624 3.8586 0.60024 1.8094 0 0z"/>
  <path d="m301.8 195c6.7601 1.9092 17.454 2.2162 21.2 8.3-4.0693 6.2594-3.2366 20.762-12.7 20.2-7.7748-4.203-22.719-4.586-14.191-16.578 1.5668-4.1735 2.8505-8.3898 5.6909-11.922zm1.2 3c-5.8476 6.7206-2.9831 11.223 1.25 0.5zm13 4c-4.6907 4.3128 3.5695 3.2488 0 0zm2 1c-2.9986 5.8676 5.5735-0.42852 0 0zm-2 6c2.4429 2.509 2.7773 0.55421 0 0zm-7 3c5.971 10.236 9.1718-2.7839 1 2-0.64166-0.35834 0.9875-2.9875-1-2zm-1 6c-1.1556 4.339 2.4828-0.8578 0 0zm2 0c-1.7175 5.521 3.932 1.9241 0 0zm4 1c-4.8401 3.9458 1.124 3.2591 0 0z"/>
  <path d="m259.3 195.5c1.4018 1.2878-2.9966 2.1311 0 0z"/>
  <path d="m503.3 196.5c10.164 2.3886 29.685 3.486 19.765 18.172-1.3998 10.032-6.0202 15.709-15.765 10.328-10.87-0.88996-16.22-6.3276-9.7904-16.55 1.3909-4.3855 1.9832-8.8838 5.7904-11.95zm1.7 10.5c-1.0354 6.9313 14.506 8.3253 10 3 5.1407 6.2477 3.2128-1.9648-4-2-4.2612 7.3942 4.8052-0.83308-6-1z"/>
  <path d="m366.8 199c-0.17486 2.2608-1.7368 1.4 0 0z"/>
  <path d="m181.5 200c3.0712-0.51625-0.51625 3.0712 0 0z"/>
  <path d="m227.3 200c5.7573 2.8037 21.863 2.2354 18.621 11.038-4.0481 5.4423-4.1682 20.859-11.134 17.646-6.2602-2.7307-21.084-2.7642-15.662-13.102 2.7119-5.0784 3.4596-11.983 8.1749-15.581zm-1.3 2c-4.5737 16.249 9.7203-1.2033 1 3.5287-0.7977-1.2584 1.6032-3.1201-1-3.5287zm13 5c4.4663 6.5959 5.0289-1.1962 1 1-1.5325 2.5616-0.91363-0.0704-1-1zm-2 10c0.88861 6.6265 5.8991 1.7542 0 0zm-6 5c-5.7906 5.0929 8.2954 0.67226 0 0zm3 1c-2.7793 6.4242 8.0553 0.36048 0 0z"/>
  <path d="m329.3 203c6.2256 2.4344 21.389 1.8541 20.693 10.181-3.7819 5.8682-3.704 22.55-13.48 18.104-9.5154-3.0778-21.455-5.5592-12.401-17.978 1.566-3.5486 2.1895-7.5916 5.1873-10.307zm-0.3 3c-6.3323 8.3517 2.9351 10.23 3.2242 3.1838 4.6124-3.0358-3.9858-0.54618-3.2242-3.1838zm15 5c5.4135 9.2246 4.4844-4.1122 0 0zm1 6c-3.932 2.6275 3.1633 1.7693 0 0zm-6 4c4.8624 5.1193 6.5538-0.54528 0 0zm-9 3c0.97304 7.2198 11.098-0.31392 2 2 3.2428-1.3632-2.7317-1.4177-2-2zm7 2c-1.4527 4.6365 3.6637-1.5036 0 0zm2 1c1.1171 6.3359 5.9349-1.3208 0 0z"/>
  <path d="m283.8 203.5c1.7731 1.8936-2.7901 0.75614 0 0z"/>
  <path d="m252.8 208c20.02-0.68202 22.918 10.964 13.7 24.8-0.43189 11.351-11.079 0.40541-18.788 0.23104-8.7607-3.845 0.85198-15.274 2.2883-21.731 0.93333-1.1 1.8667-2.2 2.8-3.3zm0.2 2c-9.366 12.136 8.7065 8.7337 1.6042 0.53473l-1.3958-0.46528zm14 5c-1.4533 8.7683 9.6745 0.12112 0 0zm-1 6c-1.0587 5.6035 4.7273 1.0495 0 0zm-9 2c-3.5457 8.1725 19.513 5.049 4.4167 1.1389-1.3715 0.20651-3.4296 0.38564-4.4167-1.1389zm-2 6c2.2503 7.572 10.227 1.2073 5 2-1.6667-0.66667-3.3333-1.3333-5-2z"/>
  <path d="m207.5 208.5c3.0712-0.51625-0.51625 3.0712 0 0z"/>
  <path d="m209.8 209c1.7731 1.8936-2.7901 0.75614 0 0z"/>
  <path d="m346.3 211.5c1.4018 1.2878-2.9966 2.1311 0 0z"/>
  <path d="m96.8 212c5.0071 1.3992-0.73453 2.5108 0 0z"/>
  <path d="m356.3 212c7.0116 1.3541 18.192 2.0852 21.7 8.2713-3.0274 6.4533-2.7417 20.339-11.625 20.404-5.0754-4.023-19.761-1.823-17.41-10.771 2.5117-5.864 3.6372-12.791 7.3347-17.904zm0.7 2c-6.9198 14.199 3.0473 9.7072 0 0zm14 5c4.6397 6.1142 4.0465-1.0402 1 0zm1 7c-1.302 5.5944 5.4297-1.4632 0 0zm-4 3c-0.25909 8.2703 8.2202-1.0989 0 1.5287v-1.4713zm-4 6c-3.1023 4.3203 3.898 0.70071 0 0zm2 0c3.0412 6.9655 9.8357 0.28218 0 0z"/>
  <path d="m253 212.5c4.75 1.0616-0.45739 2.3408 0 0z"/>
  <path d="m252 215c4.6208 1.515-1.7521 3.8983 0 0z"/>
  <path d="m106.8 216c2.9142 1.3707 0.262 0.75722 0 0z"/>
  <path d="m278.8 216.5c6.4764 1.7116 20.463 2.3759 20.669 9.6721-2.6556 6.5512-6.5116 17.492-8.8679 20.872-8.7348-3.9796-27.629-3.5214-18.008-17.977 2.0479-4.1975 2.7129-9.2391 6.2071-12.568zm-0.8 2.5c-4.7292 10.174 1.1275 4.5181 3.316 6.368 4.6367-9.2119-3.0576 0.8734-1.316-6.368zm10 3c1.199 5.9267 9.1647 4.9529 8.8162 3.7758 4.1732-3.2825-8.6378-2.1713-8.8162-3.7758zm6 10c-0.70691 3.0974 2.3736-2.0142 0 0zm-7 1c-3.3607 8.4389 16.188 0.91009 0 0zm-2 6c1.7681 4.5808 8.2708 1.8456 0 0zm-1 1c0.10819 2.4987 3.463 1.111 0 0zm6 0c-0.84955 7.9246 4.9387-1.7254 0 0z"/>
  <path d="m236.8 218c2.6478 1.8988-2.6478 1.8988 0 0z"/>
  <path d="m385.3 220c6.2054 3.7386 19.787 1.9046 20.7 10.3-3.8866 5.8435-2.9206 19.409-10.606 19.267-5.7714-3.8005-22.796-1.7395-18.463-12.059 2.6973-5.5558 2.8096-14.235 8.3694-17.508zm-3.3 8c-5.6043 10.173 8.1618 8.0711 7 8 3.0053-6.2948-1.2755 5.607 5-3-3.9019 7.8099 8.8496 8.853 8 3-6.1741-5.9591-5.8853 7.056-7-0.75 5.5624-6.528-10.012 0.58346-9.7916-6.1806-1.0694-0.35648-2.1389-0.71297-3.2084-1.0694z"/>
  <path d="m292.3 223.5c1.4018 1.2878-2.9966 2.1311 0 0z"/>
  <path d="m130.3 224c3.7804-0.19127 1.1752 2.7429 0 0z"/>
  <path d="m258.8 224.5c2.0726 1.8-2.2338 1.7562 0 0z"/>
  <path d="m306.3 225c6.1109 3.8022 21.101 1.5996 20.2 10.8-2.6353 6.2584-5.945 17.46-8.4021 20.254-6.5077-4.213-22.887-2.0477-20.598-12.254 2.7603-6.214 4.0648-13.936 8.8-18.8zm-0.3 3c-7.96 12.163 4.3737 4.6246 3.1592 6.2953 3.7853-13.169-1.745 3.0504-3.1592-6.2953zm18 5c-4.1574 6.0756 6.6499-0.632 0 0zm-3 8c0.94518 3.4876 2.3671-2.2164 0 0zm-8 1c0.14703 7.3836 14.472 1.7923 4 1.5287-1.5512 0.0342-0.43174-2.1929-4-1.5287zm-5 5c0.27644 2.5424 6.8928 7.0375 11 3-3.5421-0.73042-8.0255-3.5705-11-3z"/>
  <path d="m140.8 227.5c3.5875-1.4501 1.0684 3.6568 0 0z"/>
  <path d="m144.3 228.5c7.0562 1.4434-1.3393 2.6752 0 0z"/>
  <path d="m383 230c6.1997 2.6142-1.3608 8.3613 0 0z"/>
  <path d="m150.3 231c3.3142-0.37643-0.67541 1.5034 0 0z"/>
  <path d="m153.3 231.5c0.16667 0.33333 0.16667 0.33333 0 0z"/>
  <path d="m159.3 233.5c4.3331 0.20627-0.69771 3.2112 0 0z"/>
  <path d="m333.3 234c6.687 2.3951 19.365 2.1246 21.2 9.8-2.2614 7.2956-5.952 16.033-8.7 21.7-6.2664-3.8132-17.911-3.3802-21.167-9.1653 1.1492-7.5497 4.4322-16.537 8.6668-22.335zm0.7 5c-2.539 7.9597 4.32 2.5839 0 0zm3 1c-3.2612 9.8144 3.5098 0.10131 0 0zm2 1c-2.9749 6.2412 12.459 9.7579 9 3-1.9223 0.94625-4.6334-1.064-9-3zm-8 6c-0.83315 7.5688-1.7808 4.8044 1.5 7.5 2.7159-2.0134 8.0739 0.91343 4.5-4.5-2.3192-1.6873-8.1586 2.4859-3-3l-1.25-0.5zm8 3c-5.4023 9.1402 3.7983 2.6511 0.52867 0zm2 0c-5.3011 14.271 4.772-4.1304 3.0694 5.7916-0.06892 4.7632 8.9564-7.8863-3.0694-5.7916z"/>
  <path d="m289.5 234.5c2.79-0.46557-1.2307 3.1897 0 0z"/>
  <path d="m399.3 235c3.9371-0.25798-2.6152 2.9901 0 0z"/>
  <path d="m165.8 236c1.4108-0.99804 0.65279 2.5652 0 0z"/>
  <path d="m170 237.5c3.9486 0.2538-0.0284 2.233 0 0z"/>
  <path d="m174 239c4.0123-0.75105-1.2276 2.5236 0 0z"/>
  <path d="m177.8 240c2.0078-0.97733 1.5269 2.3492 0 0z"/>
  <path d="m180.3 241c2.7714 0.30917 1.0987 2.1171 0 0z"/>
  <path d="m183.8 242c0.16667 0.33333 0.16667 0.33333 0 0z"/>
  <path d="m361.3 242.5c11.907 4.0583 24.737 6.5217 35.7 12.3-0.81353 8.7491-5.8611 16.769-8.2 24.7-12.14-4.5448-25.232-8.1663-36.8-12.7 1.7848-8.0187 3.8634-18.105 9.3-24.3zm12.7 6.5c-4.6166 7.9104 7.8792 4.8263 10.5 7.75 5.5798-3.0746-0.26401-2.4704-1.5-4.75-6.1879 6.1233 2.9416-3.2146-9-3zm-6 9c-2.9593 6.051-2.6816 8.2032 5 6-0.0329-7.4519-5.9443 0.63488-4.4713-6zm8 3c-9.0672 10.536 9.267 6.0698 0 0zm4 1c-4.5735 9.4954 5.9921 8.9393 7 6-1.3897-6.6326 0.66011-1.8364-7-6z"/>
  <path d="m456.8 243c7.4981 1.3102 17.94 2.755 22.959 7.9484-3.1752 6.5223-1.9783 21.281-10.879 21.687-5.673-4.3059-19.935-1.3972-19.926-9.7346 2.8176-6.4506 3.1299-14.531 7.8461-19.9zm10.2 7c-6.4838 5.4353-3.7117 22.132-1 5.25 3.1673 3.646 2.4132-4.8836 1-5.25z"/>
  <path d="m345.8 244c3.1839 1.7679-3.3148 4.0103 0 0z"/>
  <path d="m190.8 244.5c2.7714 0.30917 1.0987 2.1171 0 0z"/>
  <path d="m199.3 247.5c1.4108-0.99804 0.65279 2.5652 0 0z"/>
  <path d="m377.3 250.5c2.3112 1.4752-1.866 1.301 0 0z"/>
  <path d="m373.5 251.5c2.8243-0.41586-1.045 2.0071 0 0z"/>
  <path d="m221.3 255c3.3142-0.37643-0.67541 1.5034 0 0z"/>
  <path d="m223.3 255.5c1.4108-0.99804 0.65279 2.5652 0 0z"/>
  <path d="m225.3 256c3.9799 1.2952 1.1542 2.8582 0 0z"/>
  <path d="m372.3 260.5c2.5609 2.1914-2.6858 3.0024 0 0z"/>
  <path d="m420.3 261.5c6.0474 3.8931 22.069 2.1025 20.835 11.113-3.6582 5.9726-2.3734 23.092-12.051 19.582-5.8923-3.5441-23.025-2.0594-17.188-12.582 2.9617-5.6662 2.5231-14.86 8.4042-18.113zm3.7 11.5c-10.391 1.7151 15.936 7.3211 8.311 3.8049-4.8423-0.85646-5.3243-4.695-8.311-3.8049z"/>
  <path d="m375.5 263.5c2.8243-0.41586-1.045 2.0071 0 0z"/>
  <path d="m380 263.5c8.8183 0.85242-3.9851 8.4414 0 0z"/>
  <path d="m449.3 270.5c6.273 3.8977 22.066 2.2581 21.382 11.127-2.9225 6.7533-2.9863 18.782-9.3818 21.373-6.0476-4.7302-20.054-2.9597-21.642-10.016 4.3922-6.7935 3.2035-17.429 9.642-22.484zm8.7 8.5c-4.6162 5.9855-4.524 19.004-0.658 9.684-1.3957-2.2888 4.2102-9.327 0.658-9.684z"/>
  <path d="m477.3 280.5c7.8229 0.92456 16.02 3.7831 23.01 7.0697 0.81983 7.8516-3.5043 17.142-7.0679 24.523-7.2797 0.15289-15.238-4.8442-22.667-6.4091-4.4169-5.2206 5.1786-14.501 4.6709-21.921 0.0215-1.4166 1.4558-2.132 2.0533-3.2627zm0.7 11.5c3.8252 5.9989 19.941 6.4284 9 3-3-1-6-2-9-3z"/>
  <path d="m326.3 290.5c3.3142-0.37643-0.67541 1.5034 0 0z"/>
  <path d="m335 293c3.0712-0.51625-0.51625 3.0712 0 0z"/>
  <path d="m341.3 295.5c3.3142-0.37643-0.67541 1.5034 0 0z"/>
  <path d="m343.3 296c2.7714 0.30917 1.0987 2.1171 0 0z"/>
  <path d="m352.3 299c3.1626 0.17094 1.5166 2.1801 0 0z"/>
  <path d="m357.8 301c3.3142-0.37643-0.67541 1.5034 0 0z"/>
  <path d="m364.3 303c6.6762 1.1435 7.34 3.9373 0 0.5z"/>
  <path d="m371.8 305.5c2.0078-0.97733 1.5269 2.3492 0 0z"/>
  <path d="m383.8 309.5c5.1403 0.13176 1.9975 3.1066 0 0z"/>
  <path d="m390.8 312c3.3142-0.37643-0.67541 1.5034 0 0z"/>
  <path d="m403.8 316c3.0604-0.83809-0.61875 2.6971 0 0z"/>
  <path d="m413.3 319.5c3.3142-0.37643-0.67541 1.5034 0 0z"/>
  <path d="m419.8 321c2.4786 1.8184-2.9556 0.95769 0 0z"/>
  <path d="m423.3 322.5c1.4108-0.99804 0.65279 2.5652 0 0z"/>
  <path d="m438.8 328c3.3142-0.37643-0.67541 1.5034 0 0z"/>
  <path d="m457.3 334c3.3142-0.37643-0.67541 1.5034 0 0z"/>
  <path d="m509.8 351c3.3142-0.37643-0.67541 1.5034 0 0z"/>
 </g>
 <path d="m0 0h640v360h-640v-360zm165 33c-10.717 2.2409-13.112 15.431-19.972 22.746-13.072 17.963-24.347 36.961-33.176 57.367-12.47 26.329-26.11 52.39-37.851 78.887-1.8438 11.099 7.8513 19.444 18.164 20.73 140.95 47.09 281.89 94.18 422.84 141.27 9.6136 0.44885 7.5729-12.479 11.289-18.443 3.9765-17.925 9.6477-35.456 13.871-53.262 3.9601-11.306 5.4424-23.4 9.8334-34.596 7.4563-31.297 17.059-61.718 24.562-93.123 6.656-12.186-6.8304-16.8-16.418-17.72-36.48-9.1783-73.076-18.628-109.14-28.856-27.25-8.3197-55.3-14.298-82.684-21.805-64.997-18.784-130.77-33.899-195.74-52.552-1.8174-0.64615-3.6629-0.74716-5.5726-0.64315z" opacity="0" stroke="#000"/>
</svg>
