<?xml version="1.0" encoding="UTF-8" standalone="no"?>
<!-- Generator: Adobe Illustrator 19.0.0, SVG Export Plug-In . SVG Version: 6.00 Build 0)  -->

<svg
   version="1.1"
   id="Layer_1"
   x="0px"
   y="0px"
   viewBox="0 0 455 455"
   style="enable-background:new 0 0 455 455;"
   xml:space="preserve"
   xmlns="http://www.w3.org/2000/svg"
   xmlns:svg="http://www.w3.org/2000/svg"><defs
   id="defs845" />
<path
   d="M 424.473,415.471 243.04288,114.086 295.12359,30.341083 a 5.9409597,5.9409597 76.594069 0 0 -1.95755,-8.213162 l -15.58663,-9.480842 a 6.0596173,6.0596173 166.59402 0 0 -8.29478,1.977009 L 225.2365,85.453 181.18837,14.624088 a 6.0597885,6.0597885 13.406786 0 0 -8.29486,-1.977154 l -15.58647,9.480132 a 5.9408219,5.9408219 103.40688 0 0 -1.95766,8.213033 L 207.43012,114.086 26,415.471 c 0,0 -20,30 0,30 h 398.473 c 19.527,0 0,-30 0,-30 z M 285.27641,410.14536 225.37907,294.72 165.2465,410.14976 a 9.8910098,9.8910098 148.75852 0 1 -8.77207,5.32124 h -31.67944 a 3.5996337,3.5996337 59.038815 0 1 -3.176,-5.29386 L 225.43671,215.561 328.87812,410.17291 a 3.6057458,3.6057458 121.00408 0 1 -3.18393,5.29809 h -31.65416 a 9.873316,9.873316 31.28699 0 1 -8.76362,-5.32564 z"
   id="path810"
   style="stroke-width:1.00556" />
<g
   id="g812">
</g>
<g
   id="g814">
</g>
<g
   id="g816">
</g>
<g
   id="g818">
</g>
<g
   id="g820">
</g>
<g
   id="g822">
</g>
<g
   id="g824">
</g>
<g
   id="g826">
</g>
<g
   id="g828">
</g>
<g
   id="g830">
</g>
<g
   id="g832">
</g>
<g
   id="g834">
</g>
<g
   id="g836">
</g>
<g
   id="g838">
</g>
<g
   id="g840">
</g>
</svg>
