<?xml version="1.0" encoding="UTF-8" standalone="no"?>
<!-- Generator: Adobe Illustrator 19.0.0, SVG Export Plug-In . SVG Version: 6.00 Build 0)  -->

<svg
   version="1.1"
   id="Layer_1"
   x="0px"
   y="0px"
   viewBox="0 0 1188.8465 1275.6552"
   xml:space="preserve"
   sodipodi:docname="tent-caravan.svg"
   width="1188.8464"
   height="1275.6553"
   inkscape:version="1.1.1 (1:1.1+202109281944+c3084ef5ed)"
   xmlns:inkscape="http://www.inkscape.org/namespaces/inkscape"
   xmlns:sodipodi="http://sodipodi.sourceforge.net/DTD/sodipodi-0.dtd"
   xmlns="http://www.w3.org/2000/svg"
   xmlns:svg="http://www.w3.org/2000/svg"><sodipodi:namedview
   id="namedview20"
   pagecolor="#505050"
   bordercolor="#eeeeee"
   borderopacity="1"
   inkscape:pageshadow="0"
   inkscape:pageopacity="0"
   inkscape:pagecheckerboard="0"
   showgrid="false"
   width="910px"
   fit-margin-top="100"
   fit-margin-left="50"
   fit-margin-right="50"
   fit-margin-bottom="100"
   lock-margins="false"
   inkscape:zoom="0.54467311"
   inkscape:cx="594.8522"
   inkscape:cy="637.99735"
   inkscape:window-width="1500"
   inkscape:window-height="931"
   inkscape:window-x="0"
   inkscape:window-y="0"
   inkscape:window-maximized="1"
   inkscape:current-layer="Layer_1" /><defs
   id="defs845" />
<path
   d="M 500.78531,503.70651 319.35519,202.32152 371.4359,118.5766 a 5.9409597,5.9409597 0 0 0 -1.95755,-8.21316 l -15.58663,-9.48084 a 6.0596173,6.0596173 0 0 0 -8.29478,1.97701 l -44.04813,70.82891 -44.04813,-70.82891 a 6.0597885,6.0597885 0 0 0 -8.29486,-1.97716 l -15.58647,9.48013 a 5.9408219,5.9408219 0 0 0 -1.95766,8.21304 l 52.08074,83.7459 -181.43012,301.38499 c 0,0 -20,30 0,30 h 398.473 c 19.527,0 0,-30 0,-30 z M 361.58872,498.38087 301.69138,382.95551 241.55881,498.38527 a 9.8910098,9.8910098 0 0 1 -8.77207,5.32124 H 201.1073 a 3.5996337,3.5996337 0 0 1 -3.176,-5.29386 L 301.74902,303.79651 405.19043,498.40842 a 3.6057458,3.6057458 0 0 1 -3.18393,5.29809 h -31.65416 a 9.873316,9.873316 0 0 1 -8.76362,-5.32564 z"
   id="path810"
   style="fill:#ededed;fill-opacity:1;stroke-width:1.00556" />
<g
   id="g812"
   transform="translate(76.31231,88.235508)">
</g>
<g
   id="g814"
   transform="translate(76.31231,88.235508)">
</g>
<g
   id="g816"
   transform="translate(76.31231,88.235508)">
</g>
<g
   id="g818"
   transform="translate(76.31231,88.235508)">
</g>
<g
   id="g820"
   transform="translate(76.31231,88.235508)">
</g>
<g
   id="g822"
   transform="translate(76.31231,88.235508)">
</g>
<g
   id="g824"
   transform="translate(76.31231,88.235508)">
</g>
<g
   id="g826"
   transform="translate(76.31231,88.235508)">
</g>
<g
   id="g828"
   transform="translate(76.31231,88.235508)">
</g>
<g
   id="g830"
   transform="translate(76.31231,88.235508)">
</g>
<g
   id="g832"
   transform="translate(76.31231,88.235508)">
</g>
<g
   id="g834"
   transform="translate(76.31231,88.235508)">
</g>
<g
   id="g836"
   transform="translate(76.31231,88.235508)">
</g>
<g
   id="g838"
   transform="translate(76.31231,88.235508)">
</g>
<g
   id="g840"
   transform="translate(76.31231,88.235508)">
</g>
<g
   id="g81"
   transform="matrix(1.0909685,0,0,1.0958425,604.27219,96.597568)"
   style="fill:#ededed;fill-opacity:1"><g
     id="g26"
     style="fill:#ededed;fill-opacity:1">
	<circle
   cx="245"
   cy="366.80099"
   r="35.117001"
   id="circle22"
   style="fill:#ededed;fill-opacity:1" />
	<path
   d="M 489.313,284.857 C 487.656,265.593 471.442,169.8 457.417,146.322 447.818,128.472 431.255,115.828 405.295,106.523 370.69,94.123 320.41,88.089 251.583,88.082 h -0.116 c -45.731,0 -85.543,3.27 -118.331,9.717 -28.277,5.563 -51.52,13.51 -69.084,23.621 -14.713,8.471 -27.292,20.811 -37.387,36.672 -9.103,14.303 -16.038,31.188 -20.612,50.186 -8.207,34.084 -8.061,73.307 0.389,104.918 4.104,15.352 10.029,28.178 17.136,37.094 7.785,9.764 17.091,14.926 26.911,14.926 h 140.822 c 1.204,0 2.203,-0.932 2.285,-2.133 1.838,-26.906 24.418,-47.984 51.406,-47.984 26.988,0 49.568,21.078 51.406,47.984 0.082,1.201 1.081,2.133 2.285,2.133 h 126.04 c 22.252,0 39.102,-6.064 50.079,-18.027 16.279,-17.74 16.072,-44.07 14.501,-62.332 z M 190.087,199.996 c 0,2.92 -2.44,5.287 -5.452,5.287 h -91.57 c -3.011,0 -5.452,-2.367 -5.452,-5.287 v -49.502 c 0,-2.92 2.441,-5.285 5.452,-5.285 h 91.57 c 3.011,0 5.452,2.365 5.452,5.285 z m 108.868,0.525 c 0,2.941 -2.384,5.324 -5.325,5.324 h -49.862 c -2.941,0 -5.325,-2.383 -5.325,-5.324 v -49.863 c 0,-2.941 2.384,-5.324 5.325,-5.324 h 49.862 c 2.941,0 5.325,2.383 5.325,5.324 z m 105.509,116.768 c 0,3.543 -2.871,6.414 -6.413,6.414 h -64.588 c -3.542,0 -6.413,-2.871 -6.413,-6.414 V 151.746 c 0,-3.541 2.871,-6.412 6.413,-6.412 h 64.588 c 3.542,0 6.413,2.871 6.413,6.412 z"
   id="path24"
   style="fill:#ededed;fill-opacity:1" />
</g><g
     id="g28"
     style="fill:#ededed;fill-opacity:1">
</g><g
     id="g30"
     style="fill:#ededed;fill-opacity:1">
</g><g
     id="g32"
     style="fill:#ededed;fill-opacity:1">
</g><g
     id="g34"
     style="fill:#ededed;fill-opacity:1">
</g><g
     id="g36"
     style="fill:#ededed;fill-opacity:1">
</g><g
     id="g38"
     style="fill:#ededed;fill-opacity:1">
</g><g
     id="g40"
     style="fill:#ededed;fill-opacity:1">
</g><g
     id="g42"
     style="fill:#ededed;fill-opacity:1">
</g><g
     id="g44"
     style="fill:#ededed;fill-opacity:1">
</g><g
     id="g46"
     style="fill:#ededed;fill-opacity:1">
</g><g
     id="g48"
     style="fill:#ededed;fill-opacity:1">
</g><g
     id="g50"
     style="fill:#ededed;fill-opacity:1">
</g><g
     id="g52"
     style="fill:#ededed;fill-opacity:1">
</g><g
     id="g54"
     style="fill:#ededed;fill-opacity:1">
</g><g
     id="g56"
     style="fill:#ededed;fill-opacity:1">
</g></g><g
   id="g1527"
   transform="matrix(1.0909685,0,0,1.0958425,50.00053,735.21651)"
   style="fill:#ededed;fill-opacity:1"><g
     id="g1495"
     style="fill:#ededed;fill-opacity:1">
	<circle
   cx="245"
   cy="366.80099"
   r="35.117001"
   id="circle1491"
   style="fill:#ededed;fill-opacity:1" />
	<path
   d="M 489.313,284.857 C 487.656,265.593 471.442,169.8 457.417,146.322 447.818,128.472 431.255,115.828 405.295,106.523 370.69,94.123 320.41,88.089 251.583,88.082 h -0.116 c -45.731,0 -85.543,3.27 -118.331,9.717 -28.277,5.563 -51.52,13.51 -69.084,23.621 -14.713,8.471 -27.292,20.811 -37.387,36.672 -9.103,14.303 -16.038,31.188 -20.612,50.186 -8.207,34.084 -8.061,73.307 0.389,104.918 4.104,15.352 10.029,28.178 17.136,37.094 7.785,9.764 17.091,14.926 26.911,14.926 h 140.822 c 1.204,0 2.203,-0.932 2.285,-2.133 1.838,-26.906 24.418,-47.984 51.406,-47.984 26.988,0 49.568,21.078 51.406,47.984 0.082,1.201 1.081,2.133 2.285,2.133 h 126.04 c 22.252,0 39.102,-6.064 50.079,-18.027 16.279,-17.74 16.072,-44.07 14.501,-62.332 z M 190.087,199.996 c 0,2.92 -2.44,5.287 -5.452,5.287 h -91.57 c -3.011,0 -5.452,-2.367 -5.452,-5.287 v -49.502 c 0,-2.92 2.441,-5.285 5.452,-5.285 h 91.57 c 3.011,0 5.452,2.365 5.452,5.285 z m 108.868,0.525 c 0,2.941 -2.384,5.324 -5.325,5.324 h -49.862 c -2.941,0 -5.325,-2.383 -5.325,-5.324 v -49.863 c 0,-2.941 2.384,-5.324 5.325,-5.324 h 49.862 c 2.941,0 5.325,2.383 5.325,5.324 z m 105.509,116.768 c 0,3.543 -2.871,6.414 -6.413,6.414 h -64.588 c -3.542,0 -6.413,-2.871 -6.413,-6.414 V 151.746 c 0,-3.541 2.871,-6.412 6.413,-6.412 h 64.588 c 3.542,0 6.413,2.871 6.413,6.412 z"
   id="path1493"
   style="fill:#ededed;fill-opacity:1" />
</g><g
     id="g1497"
     style="fill:#ededed;fill-opacity:1">
</g><g
     id="g1499"
     style="fill:#ededed;fill-opacity:1">
</g><g
     id="g1501"
     style="fill:#ededed;fill-opacity:1">
</g><g
     id="g1503"
     style="fill:#ededed;fill-opacity:1">
</g><g
     id="g1505"
     style="fill:#ededed;fill-opacity:1">
</g><g
     id="g1507"
     style="fill:#ededed;fill-opacity:1">
</g><g
     id="g1509"
     style="fill:#ededed;fill-opacity:1">
</g><g
     id="g1511"
     style="fill:#ededed;fill-opacity:1">
</g><g
     id="g1513"
     style="fill:#ededed;fill-opacity:1">
</g><g
     id="g1515"
     style="fill:#ededed;fill-opacity:1">
</g><g
     id="g1517"
     style="fill:#ededed;fill-opacity:1">
</g><g
     id="g1519"
     style="fill:#ededed;fill-opacity:1">
</g><g
     id="g1521"
     style="fill:#ededed;fill-opacity:1">
</g><g
     id="g1523"
     style="fill:#ededed;fill-opacity:1">
</g><g
     id="g1525"
     style="fill:#ededed;fill-opacity:1">
</g></g><path
   d="M 1073.3552,1142.3255 891.92512,840.94046 944.00583,757.19554 a 5.9409597,5.9409597 0 0 0 -1.95755,-8.21317 l -15.58663,-9.48084 a 6.0596173,6.0596173 0 0 0 -8.29478,1.97701 l -44.04813,70.82892 -44.04813,-70.82892 a 6.0597885,6.0597885 0 0 0 -8.29486,-1.97715 l -15.58647,9.48013 a 5.9408219,5.9408219 0 0 0 -1.95766,8.21303 l 52.08074,83.74591 -181.43012,301.38504 c 0,0 -20,30 0,30 h 398.47296 c 19.527,0 0,-30 0,-30 z m -139.19655,-5.3256 -59.89734,-115.4254 -60.13257,115.4298 a 9.8910098,9.8910098 0 0 1 -8.77207,5.3212 h -31.67944 a 3.5996337,3.5996337 0 0 1 -3.176,-5.2939 L 874.31895,942.41545 977.7604,1137.0274 a 3.6057458,3.6057458 0 0 1 -3.184,5.2981 h -31.65413 a 9.873316,9.873316 0 0 1 -8.76362,-5.3256 z"
   id="path1529"
   style="fill:#ededed;fill-opacity:1;stroke-width:1.00556" /></svg>
