<?xml version="1.0" encoding="UTF-8" standalone="no"?>
<svg
   id="Layer_1"
   data-name="Layer 1"
   viewBox="0 0 361.67651 499.33603"
   version="1.1"
   xmlns="http://www.w3.org/2000/svg"
   xmlns:svg="http://www.w3.org/2000/svg">
  <defs
     id="defs7" />
  <path
     d="M 222.15269,66.841124 C 202.45595,43.597782 185.48516,19.826447 182.03911,14.948405 a 0.77587085,0.77587085 0 0 0 -1.27548,1.09e-4 c -3.44538,4.878152 -20.41229,28.649341 -40.10836,51.89261 -168.81822,215.067396 26.64519,360.169936 26.64519,360.169936 l 1.58453,1.10117 c 1.4818,22.4497 5.16351,54.71347 5.16351,54.71347 h 14.71022 c 0,0 3.66593,-32.12486 5.15426,-54.56787 l 1.59452,-1.24669 c 0,0 195.46163,-145.10257 26.64519,-360.170016 z M 181.40434,423.85771 h -0.002 c 0,0 -8.76224,-7.47427 -11.12741,-11.21916 l -0.0214,-0.40307 10.59894,-234.14644 a 0.55150575,0.55150575 0 0 1 1.10189,0 l 10.59894,234.14609 -0.0207,0.40187 c -2.36351,3.74434 -11.12852,11.22071 -11.12852,11.22071 z"
     fill="#00ed64"
     id="path2"
     style="stroke-width:1.82129" />
</svg>
